<mxfile host="app.diagrams.net" agent="Mozilla/5.0 (Windows NT 10.0; Win64; x64; rv:129.0) Gecko/20100101 Firefox/129.0" version="24.7.7">
  <diagram name="Seite-1" id="kS3Tt4LzscqatxxDvFlH">
    <mxGraphModel dx="794" dy="386" grid="1" gridSize="10" guides="1" tooltips="1" connect="1" arrows="1" fold="1" page="1" pageScale="1" pageWidth="827" pageHeight="1169" math="0" shadow="0">
      <root>
        <mxCell id="0" />
        <mxCell id="1" parent="0" />
        <mxCell id="xlCc9dDXaL0q_Gi0ADgm-1" value="" style="shape=image;imageAspect=0;aspect=fixed;verticalLabelPosition=bottom;verticalAlign=top;image=data:image/png,iVBORw0KGgoAAAANSUhEUgAABVwAAAHpCAYAAAB+yPdoAAAAAXNSR0IArs4c6QAAAARnQU1BAACxjwv8YQUAAAAJcEhZcwAACxMAAAsTAQCanBgAAPjMSURBVHhe7P0HfJzXdeD9HwADYBp6Iwn2LpIiJapQxaIsS3Icl8hWnI1srR07Ujb5b8pudvN5nXeTjTfK60/ybrbEuyn6/GWv808sx1VO4hLbkiWrF4qixN47QXTMYHrF/zmXDylSAkDM88wAM4PfV4aHuDMEKQ3wPPeee+45NRMWAQAAAAAAAAC4VhEB17GxmOTzk/81OzqCMjIStT9DueP9qiy8XxfU1tZIW1vA/qx6ca2tHrxflYX364L5cq1VXG+rA+9VZeH9ehtzW1QCfmar13x5bysi4KpvxFQXyq6uJhkaitifodzxflUW3q8LdFKqN4Vqx7W2evB+VRberwvmy7VWcb2tDrxXlYX3623MbVEJ+JmtXvPlva21Hy956aWX5NOf/rRs27ZNtm7dKp/61Kfk+eeft5+dmR07dsi/+Tf/Rm6++Wa5/vrr5f7775evfe1rks1m7VcAAAAAAAAAQPW5IuD6xBNPyGc/+1nZtWuXbN682QRL9dcPP/ywfOMb37BfNb1/+Id/MAHbZ599Vtra2uSWW26RcDgsf/zHfyy//uu/LvF43H4lAAAAAAAAAFSXSwHXwcFB+fznPy9NTU3yne98Rx577DH58pe/bDJTg8GgfOELX5CBgQH71ZM7fvy4/D//z/8j+Xxe/vN//s/y4x//WP7mb/5GfvKTn8iv/uqvygsvvCD/+3//b/vVAAAAAAAAAFBdLgVcv/rVr0o6nZbPfOYzsnbtWntUTKarZrimUqmrZrlqhqyWDfjwhz8s//pf/2t7VKSurk5+7/d+T9asWSN///d/L6Ojo/YzAAAAAAAAAFA9LgVcL9Zpveeee8zj5e69917z+Nxzz5nHqRw+fNg8vu997zOPl9Og64033iiZTEZefvllexQAAAAAAAAAqocJuE5MTMjRo0eltrZWVq5caZ643PLly81z+hp97VS0lIAKBALm8Z08Ho95PHbsmHkEAAAAAAAAgGpiAq7a1ErLCbS2tkpDQ4N54nIaKNUGWIlEQmKxmD36bitWrDCPr7/+unm8nAZq33jjDfNrSgoAAAAAAAAAqEYm4KqBVOXz+czjZLxer3mcLuD60Y9+VGpqauRv//Zv5Wc/+5k9eiHY+ld/9Veyb98+87kGdwEAAAAAAACg2tRMWAYGBmT79u3S29srTz/9tP3Ule666y7p6+szdVx7enrs0Xf7m7/5G/mLv/gL8+sNGzbIokWL5MiRI+b33n///abx1i//8i/LI488Yl4DAAAAAAAAANXCBFwjkYhpaNXZ2Skvvvii/dSVbrvtNhkZGZEdO3ZIc3OzPTq5J598Ur785S/LgQMHTIkC/dq/9Vu/JcePH5ff+73fk1/7tV8zjzM1MhKVfH7y2rFdXU0yNBSxP0O54/2qLLxfF9TW1khHR9D+rHpxra0evF+VhffrgvlyrVVcb6sD71Vl4f16G3NbVAJ+ZqvXfHlvTUmBYDAofr9fxsbGJJvNmicup2P6XGNj41WDreree++Vr3/96/LWW2+ZAK1mvW7cuNEEXNXChQvNIwAAAAAAAABUExNw1bqrq1evllwuJydPnjRPXO7EiROSz+dl7dq19sjktBnWyy+/POnXUK+88op5vPbaa80jAAAAAAAAAFQTE3BVd9xxh3l86qmnzOPlLo7deeed5nEq2hTrM5/5jPzlX/6lPfK2Q4cOya5du2Tx4sWyadMmexQAAAAAAAAAqselgKs2tNKSAY899pjs3bvXHhXZs2ePfOlLXxKv1yuf/OQn7VExTbCOHTtmslovuummm0zJgR/96Efy5ptv2qMiQ0NDpmbrxMSEqeVaW3vpjwUAAAAAAACAqnEp8qmZp5/73OckGo3KAw88IA8//LA89NBD8olPfEJisZg88sgj0tHRYb9azGs/+MEPyuOPP26PiAnK/vEf/7FkMhl58MEH5Vd/9Vfl13/91+X973+/HD582ARsP/axj9mvBgAAAAAAAIDqckWqqQZJH330UdmyZYvs3LnTZLpu3bpVvvKVr8h9991nv2p6GoTVJllap1W/hma6asOsv/iLv5A/+qM/sl8FAAAAAAAAANWnZkLP+Ze5kZGo5POT/zW7uppkaChif4Zyx/tVWXi/LqitrZGOjqD9WfXiWls9eL8qC+/XBfPlWqu43lYH3qvKwvv1Nua2qAT8zFav+fLeUkwVAAAAAAAAAIqEgCsAAAAAAAAAFAkBVwBVL5vLSzSRkf7RmBw+EzKPAAAAAAAApUDAFUBVSqVzMhiKmwDr/pOjcrwvLCPjSUlnc5LLUcsJAAAAAACUBgFXAFUjl89LKJqSY+fCcuhsSAZHE1JTI9IcaDAfAW+9eGqtAQAAAAAAgBIh4Aqgok1MTEg8mZW+4ZgcODkmpweiks3npdlfL0Hro97DZQ4AAAAAAMweIhEAKpLWZR0dT8qRs2E5ei4koWhS/F6PNAfqpbG+zn4VAAAAAADA7CLgCqCiJFJZOTMYkYOnxuTcUPRSyQC/t15qKRcAAAAAAADmGAFXABVBSwcMhxNy9GxIIvGMBHweaQo0UDIAAAAAAACUFSIVAMpeOpOTk/3j0jcUk4Cv3pQOqNHUVgAAAAAAgDJDwBVAWQtHU6ZOq5YSaA42UDYAAAAAAACUNQKuAMpSJpuXs0MROdkfkcaGWlOjFQAAAAAAoNwRcAVQVrRW62gkKYfPhCQcyUhzoF48dVyqAAAAAABAZSCKAaBsaNmAY+fG5exgVLwNtRLwU6sVAAAAAABUFgKuAOZcNpeX/pGYHDkTkmw+J82BBqkjqxUAAAAAAFQgIhoA5lQ8mZGj58IyFEpKU6BevA0e+xkAAAAAAIDKQ8AVwJzI5yekfzQmR86FpbZGTLCV8gEAAAAAAKDSEXAFMOtMrda+sAyOJaTZXy8N9XX2MwAAAAAAAJWNgCuAWTMxMSHD4YQcORuSXD5varWS1QoAAAAAAKoJAVcAsyKTzcup/oj0DcUk6KNWKwAAAAAAqE4EXAGUXDSRMVmt8WRWmoMNUqtFWwEAAAAAAKoQAVcAJZOfmJCBsZgcPxeWek+N+H1ktQIAAAAAgOpGwBVASSTTWTnRNy4Do0lpCtRLvYfGWAAAAAAAoPoRcAVQVPn8hAyG4nLkTEjS2Zw0B+ppjAUAAAAAAOYNAq4AiuZCrdaw9I/EJeCrF18jJQQAAAAAAMD8QsAVgGuZbF7ODkXkWF9YamompDlAYywAAAAAADA/EXAF4Mp4LCVHzoYkHMlIs79eGuqp1QoAAAAAAOYvAq4AHMnmLmS1njgfkQZPrQT8Hmq1AgAAAACAeY+AK4CCmVqtZ0ISiqRNUyyPh0sJAAAAAACAIkoCYMYmJibk/EjM1Gr1eGok6K8nqxUAAAAAAOAyBFwBzIgGW/uGYzI0ljC1Wus91GoFAAAAAAB4JwKuAK7qQmZrXEbCSWkKkNUKAAAAAAAwFQKuAKalwdb+0bgMhRMEWwEAAAAAAK6CgCuAKWmwdWA0LoN2GQGCrQAAAAAAANMj4ApgUqaMwHDsQrCVzFYAAAAAAIAZIeAK4F0uZraeHYpSRgAAAAAAAKAABFwBXCE/MSF9wzEZCCWkNdhIsBUAAAAAAKAABFwBXJLPT8jZwaiMjKdMzdZagq0AAAAAAAAFIeAKwMjl83J6ICKhaIqarQAAV/SeMh5P258BAAAA8wsBVwCSzeXl5PmIRBMZaQ402KMAABQumc7K8b5xOTMQtUcAAACA+YWAKzDPxZIZOXoubC2QcxL019ujAAAULhRJypEzYcnl8qYmOAAAADAfEXAF5ik97nl+JCbHzoaltkYk4PPYzwAAUBg9KXF2KCInB6Li99aJt5F7CgAAAOYvAq7APKRZrUfOhmU4nJSmQL001NfZzwAAUJhUOifHzo3L2HhaWqx7Sl0d00sAAADMb8yIgXlkYmJC+i/Lam3yz6/mWPrvPzKeNNm9AAD3TLC1LywTkjcbeDRcBAAAAAi4AvPKYCgug2OJeZnVenYwKn/3o0Py5R8cNJlYAAB3UpmcHO8LS601m/Q2UEIAAAAAuIiAKzBPhKMp6R+Jz7sMpOFQQr759FH5Pz88aEoo3HNDr6zubbGfBQA4ocHWE+fHrfsJwVYAAADgnQi4AvNAIpWV04NRCfjmT7A1msjI9148KX/zT/vkeN+43HndIvntX7xWtq7tklqtpwAAcCRtB1u1TAvNsQAAAIB3I+AKVDntHH1qICIN9bXimSeNTA6cHJNH/3Gf7D42Ijev75bf/vi1JuBKczAAcCeT1WBrxARbfQRbAQAAgEkRcAWqWN5aEJ8ZjEg+NyGN8yDYqJm8333uuHzrZ8ekNdgg/+YXNsjPbVsqAW+9/QoAgFOZbF6O91n3lIk8wVYAAABgGu8KuL700kvy6U9/WrZt2yZbt26VT33qU/L888/bz87MsWPH5Hd/93fl1ltvlY0bN8r27dvlD//wD+X8+fP2KwDMhoHRuETiWfH7qn9hfOxcWB79p32y78SYyWb97IfWS1erz34WAOCGnpY4PRCRXJ5gKwAAAHA1VwRcn3jiCfnsZz8ru3btks2bN8v1119vfv3www/LN77xDftV09u9e7d8/OMflx/+8IfS2dkpd911lzQ2Nsq3vvUt+djHPiYnTpywXwmglEKRpAyFEtLkr+6FcS6Xl3955bQ8/uQRk8X7qx9abwKuddo2GwDgWj4/IWcHo+YUgd9LsBUAAAC4mksRicHBQfn85z8vTU1N8p3vfEcee+wx+fKXvyxf+9rXJBgMyhe+8AUZGBiwXz21//Jf/ovE43H5v//v/1u+973vyV/+5V/Kj370I3nggQdkbGxM/t//9/+1XwmgVHRRfGYoKgFrYVzNTbIi8bT87Y8OyY6Dg7JtQ7f82kc2yKLOgP0sAMAtLU3TNxyVcet6G/RTngUAAACYiUsB169+9auSTqflM5/5jKxdu9YeFZPpqhmuqVTqqlmuoVBI9u3bJ62trebrXFRXVyf/7t/9O/PrHTt2mEcApfF2k6w662everM89Wjr//ef98vgWEI+/t6V8nM3L5V6D1mtAFAs2hirfyQuo+MpaSLYCgAAAMzYpejExTqt99xzj3m83L333msen3vuOfM4FQ2sqlgsJpFIxPz6Is1uVS0tLeYRQPHp4vjcUExy2eptkqX/jq8dGJS/+9FhaWyok4c+dI1sWN5uPwsAKBYtSzMUiktToL6qT0sAAAAAxWYCrhrAOHr0qNTW1srKlSvNE5dbvny5eU5fo6+dipYjuO666ySTychv//Zvy+HDhyWZTJq6rv/xP/5H85qHHnrIPAIovqFwQsLRlASqtG5rNpuXf3rhpPzo1dOyqrdZHv7QNdLdRmMsACi28VhKzo/EpcnfQLAVAAAAKJAJuIbDYVNOQEsBNDQ0mCcu5/F4pK2tTRKJhMlenc6f//mfm6Dtyy+/LB/5yEdky5Yt8ku/9Ety+vRp+e///b/Lgw8+aL8SQDFFExk5Pxyv2hp7mWxevv70Udl9bMQ0xXrg7tXipVM2ABRdJpuTM4MxUwe8tpZgKwAAAFComgnL+fPn5b3vfa/09vbK008/bT91pfe9731y7tw5U1agp6fHHn03zWj9u7/7O/lf/+t/mcCrfk3NdD179qxs3LjRjC9evNh+NYBiSGVysv/4iDli3+CpvlIC+u/35X/eK0fPhOSX710r2zYutJ8pXCKZleamBlm2oNkeAQBcpCeZjp0NmU28oO/dm/CFCMdScsP6qeeMAAAAQLUyAdeBgQHZvn37tAHXu+66S/r6+qYNuGqW7K/8yq/IW2+9Jf/tv/03+eAHP2jG8/m8/OVf/qX81V/9lSxbtky+//3vT5pJO5WRkaj1NSYvZdDV1SRDQ1fWi0X54v0qPl0cH+8bl3Q2J74iZ3y2tQZkLDR9VnupabD1H546ImcGo3Lfe1bI5lUd9jPOJFNZc0S2tytoj1ydZnh1dMz89ZWKa2314P2qLOX0fo2MJ+XsUFRaAu6CrSoSz8i1K2d+zZ4v11rF9bY68F5VFt6vtzG3RSXgZ7Z6zZf31pQU8Pv95pNUKmUeJ3PxOZ9v6nqJ3/nOd+SNN96QX/7lX74UbFVa//V3fud35JZbbpFTp07JD3/4Q/sZAG6FY2mJJjNFD7aWg2Q6K4//5LAJtt6/faXrYCsAYGp6ze0bjkrQR7kWAAAAwA0TcA0GgyboOjY2Jtls1jxxOR3T5xobG6W5eepjuK+99pp5vP32283jO23fvt08HjhwwDwCcCeXz1uL45gEqjDYmkhl5as/OSx9I3H5pfeuko0r2u1nAADFphlAurlV76mVulozPQQAAADgkJlRa/fZ1atXSy6Xk5MnT5onLnfixAlrIp6XtWvX2iOTGx8fN491dZPXkLw4nslkzCMAd0bCSclZi2SPtUCuJheDrQOjCflXd62S9cva7GcAAKUwGIqba6+3gexWAAAAwK1LUZo77rjDPD711FPm8XIXx+68807zOBVtkqWeffZZ8/hOL730knlcv369eQTgXDqTMwFJ7SJdTbTGqgZbB8cS8q/et1rWLmm1nwEAlEIsmTH3kyZ/vT0CAAAAwI1LAdf777/flAx47LHHZO/evfaoyJ49e+RLX/qSeL1e+eQnP2mPimmgdezYMRkdHbVHRD7+8Y+beq3f+ta35Mknn7RHL/jbv/1bE4htb2+/or4rAGcGRuNSV1djit5XC60f+NUnD8vAWEJ+6a5VsmZxi/0MAKAUsrm8nB6IiK+xzpx4AgAAAODepYDr4sWL5XOf+5xEo1F54IEH5OGHH5aHHnpIPvGJT0gsFpNHHnlEOjreblijr9XA6eOPP26PiKxbt07+8A//0JQf+K3f+i356Ec/ah5/7ud+Tv70T//U1In94he/aGrGAnAunszIaDRlFsjVIpXOyeM/OSL9oxeCrWS2AkDp6eZdLjchDfXVcz8BAAAA5toVhR8ffPBBefTRR2XLli2yc+dOk+m6detW+cpXviL33Xef/arp6df46le/Knfffbf09/fLM888I/F4XD72sY/Jd7/7Xbn55pvtVwJwYmJiwjTK8lqL42rJRkplcvL4k4flvGmQtVLWEWwFgJIbj6VkOJyUgI+6rQAAAEAx1Uxo9KbMjYxETffcyXR1NcnQUMT+DOWO98u9UCQppwaj0hJosEdKp601IGOhmP1ZaWgt2sefPCJnh6Ly8feukmtK3CBLa8Q2+Rukt2vmmfZatqGjo/oz87nWVg/er8oyF+9XJpuXw2dD0uipLUnjxRPnxyWVycsHbl5qj1zdfLnWKq631YH3qrLwfr2NuS0qAT+z1Wu+vLfFn2EDKBmttdc3Eq+aRlkabP3aUxeCrb9458qSB1sBAPZJiZGY9QspSbD1eN+4KRFz+PSYPQIAAADMLwRcgQoyHEpILj8hnrrK/9HV7KqvP31UzgxG5WN3rJANy9vtZwAApRSOpiRkfZSilIDep779s2PS0dIot21aaI8CAAAA8wsBV6BCJFJZGbQWssEqqLWXzeblG08flZPnI3Lfe1bIppVvN+QDAJSOniw4OxSTYAlOSmhDx3/46VGpq62RT9y9RhobaMQFAACA+YmAK1AB8hMTcs5aIDfU11Z8o6xcLi/f+tkxc+T0I7cvl82rCLYCwGww95LhqKndV1fkkxJa8uYbTx+T8Vha/tX7VktrU6P9DAAAADD/EHAFKoAe/YynMuJtqOzs1lw+L99+9rgcORuWD926TK5f02k/AwAoJa3ben44JuOxjPiLnN2qX/v7L50yJWI+escKWdI9PxpfAQAAAFMh4AqUOa11en648htlmQX5i6fk0OmQfGDbUrlhXZf9DACg1IZCCRkOJ6U5UG+PFM8Lu8/L7mMj8t7rF8nGFdTjBgAAAAi4AmVuYCxmHot9/HO2PW8tyN+yFuR3XrdIbr6m2x4FAJTaaCQp50fi0uSvL3pZGj2x8MyuPrl2ZbvcsZkmWQAAAIAi4AqUsWgiIyPjKfF7K7vxyN7jI/Ize0G+fQsLcgCYLeOxlDnqH/R7TO3WYorGM/JPL5yQ7jaffOS25RVfYxwAAAAoFgKuQJnK5y80yvI11FX0IlYX+v/0wklZ2hM0TbJYkAPA7Igns3JqICqBRo/U1RZ3yqdlYv7xhROSzuTlF+9cKR4PU0oAAADgImbHQJkaHk9IKpOVhvrKzW4dHU/KN356VFoCDfKv7lotngoviwAAlSKdycmJ/nFprK8tSTD05X0DcrxvXD6wbYl0tfrsUQAAAACK6AdQhuLJjPQPxyXoK35zk9mSSGXlH546KhPWP5+4Z03Ru2IDAKY2MBq3/n+iJJt254Zj8vTOc3LNsja5fk2nPQoAAADgIgKuQJnJ5vJyaiAi3sa6otfbmy0569/hW88ck7FoymS2drR47WcAAKWmpQTGIinxNxZ/oyuVyckTzx6XoL9ePnzbMsrEAAAAAJMg4AqUEa2Jd344JrlcabKSZoP+O3z/pVNysj8iv3D7clm2oMl+BgBQanoN7h+NWfeQ2pIEQ//lldMSiqbk/u0rxFeCgC4AAABQDQi4AmVEF7EjkZQEfJW7iH1+93l569iI3HndItm8qsMeBQDMhlgyK5F4RrwlCIbusa7tu62P7VsWydIeNtMAAACAqRBwBcpEKp2Tc0MxafJ5KvaIpi7Gf7arzwRat29ZaI8CAGZDfmJC+oZj4mss/gkJ3RD84SunZUl3UO7YzPUdAAAAmA4BV6AM5PMTcmYwKnV1NdZHZf5Yat3Zf37xpCzrCVLXDwDmwHg0JclUtuglabRMwT89f8I8fvSOFRVbXxwAAACYLQRcgTIwOBaXeCpTsfXwRsJJ+ebTR6U12Cj/6n2rxVOhQWMAqFS5fF76RuLi9xb/PvLKvgE5NRCVD2xbKm1NjfYoAAAAgKkQFQHmmJYSGAwlpMlfb49UFu2G/Q9PHZEa659P3LOaJioAMAfGIinJ5vLi8RR3ajcwFpen3zgn65a2ypbV1OUGAAAAZoKAKzDHRsaT4qktTTfpUtNSCN99/riEY2n55btXS3uz134GADBbNNA6MJooesNF/br/+NwJ8TbUUSoGAAAAKAABV2AOZbI5cxzf5y1+g5PZ8Pzu83Ls3Lj83M1LTCMVAMDsGw4lTH3VutriTuu0CeLAWEI+cvtyCXgr8xQGAAAAMBcIuAJzSI+AasJQJWYNHT0blmff7JPNqzrkhnVd9igAYDbpxt1QKFn02q0n+yPy0t5+2bq2U9YuabVHAQAAAMwEAVdgjuhRzcGxREkanJRaKJoypQR62nzyoVuXVkzAWDPAUpk8Tb0AVI3hcFJqrWtwbW3xrsMaxP3nF05Ie1OjvP+mJfYoAAAAgJki6gDMEa17mp+YKOoieTZks3n59jPHJJ8X+aW7Vkm9pzLKIWgH73AsI12tPulq89mjAFC50pmcDIcT4vcV9zr80t4BCUXTpm5rQ31llrwBAAAA5hIBV2AOaLOpwdF4RWa3/vi1M9I3EpeP3rG8YppkabZWLJGVpd1BWdQZMNlgAFDpLmS3FrfpYjiakhf39MuG5W2yfGGzPQoAAACgEARcgTkwHk9LJlt5R9vfOjosOw8Pye3XLpB1S9vs0fKWSGUlnZ2QVb0tFRMgBoCr0ezWkXEtS1PcDNSnXj9r/f+E3HPj4gsDAAAAAApGwBWYZVpHVGu3+oq8SC61oVBCfvjKaVm2oEnuur7XHi1v0XhG6utqZU1vCx22AVQVzW6tK3J266mBiOw7OSa3bVogrcFGexQAAABAoQi4ArMslsxKMp2tmNqnSrNxv/PscevvXCv3b19REXVnI/GMBH31smJRMzUIAVSVlGa3hou7caelbn786mlpDjSYUwwAAAAAnCPgCsyywbG4NFZYAPAnO86YrNyPvmeFNPkb7NHyFYmlpclXL0t7mqSulsscgOoyotmt1rWtmNmtu44MS/9oQu69cXFFbQgCAAAA5YhIBDCLtJ5oNJGRxobKWczuPzkqOw8Nya2bemT14hZ7tHxpsLU50GiCrZWQiQsAhdDs1uEiZ7cmrXvTM2+cs66bQdMsqxiyubzUcQ0GAADAPEXAFZhFg6GEOZZfKXRR/70XT0lvZ0Det7X867aO28HWJd1Bgq0AqtKwdR/RhovFzG599q0+iaey8oGblxbt68YTWVlk3TsAAACA+YiAKzBLtG5rOJoSb4Vkt+Zyefn7Hx4wv/7FO1eW/dF8Dba2EGwFUMVM7dbxpPgai3cf0QDujgNDsnVtpyzo8Nuj7uhpjqC/3roml38JGgAAAKAUCLgCs0SzRT11NUXNSiqln75xTk4PROQXbl8urU3l3a06Gs8QbAVQ9UbHi1+79amd58zJi7uKdIpBm29ls3np7QxWzP0OAAAAKDYCrsAs0Kyk0fGU+Bo99kh5O3I2LK/sG5DbNy+Sa4pUz69UNJNKa+L2dgUItgKoWpls3jTLKmZ266n+iBw+E5Lbr10gAW+9PeqO1inv6fBXVK1yAAAAoNgIuAKzQBfJniJnJZVKJJ6Wf3rhhHS3+eQXtq+0R8tTOpOTiQmRZT1NpqYhAFQrLUmj17tibSxNWF/sydfPSrO/XrZt6LFH3dFrckN9nXQ2++wRAAAAYH4iQgGUWCZb/I7SpaIL8H98/oS1aM6buq0NnvL9O2uN2VQ6J8sXNJsFPgBUq1w+L4NjcfH7inet239yTPqGY/Le63uL0sxR7x+JVE4Wd1HaBQAAACDgCpSYNjipq6mM7NYX9/TLifMR+cC2JdLVWr4ZSrqw12OrS3qaxO+tjDINAOCUNgXMTUjRmhfqhtXTb5wzJxk2r+qwR92JJ3PS3tQoQV9xShMAAAAAlYyAK1BCWnNvOJSsiOzWM4NReWbXOdmwvE2uX9Npj5anSCxjumm3Bsu7mRcAuJWfmJCBsYT4ilgT9fVDQzIWSck9NywuSjaqBnCVXpcBAAAAEHAFSmosmixqzb1SSaay8sSzx6Ul0CAfvm1ZWWfjarC1talRultZ2AOofprNr7VRPUU49q/0ev/cW+dlxcImWdXbbI+6E0tkZWGHX+rLuAwNAAAAMJsIuAIlks3lZXA0IQFfeR951+P533/5lIzH03L/9pXibSjfv28ilRVvY530dgUqokQDALih1+fB0bh1XS5eIPPFvf3mWnrPjUuKch3VYLC30WM2wgAAAABcQMAVKJGQ6Sg9UfbZrS/vGzDNU+66vlcWdwft0fKj5RnyeZGlPU1Fq2MIAOVMA6Nx66NYjQHDsbS8un9Arl3ZbjJSi0EbZS3qDEgtm2AAAADAJUQtgBIwHaVH42Xf0Onlvf3y1OtnTd3W269dYI+Wn3x+wgQdli1oksYiBR4AoNwNhZJSX6RSAupnu86ZMjd3be21R9yJJy+UeKFRFgAAAHAlAq5ACYSjacnmJ6Surnx/xDTY+qQdbNVSAuV6RF+zhKPxjPR2BljUA5g3kumshGOpopUTGBiLy1tHR+Sma7qL0nBQN8JyuQlZ0E49bQAAAOCdCLgCRaaL0P4yz259Z7C1nMseRBNZaW9plI5mrz0CANVvdDwldXU1RdsMe3rnOXNC4I7NC+0Rd+LJrHS1+Th1AAAAAEyCgCtQZJqRlM1NiKdMs1srKdiq9Qt9DR5Z2EGTLADzhzZdHB1Pir+xOBt3J/sjcuRsWN6zeYH4ivA19e+n947OFp89AgAAAOByBFyBIspP2NmtjeWZ8fPKvoGKCbZmLzXJCtIkC8C8os2tJqzHYmw0aVmWn1rX/SZ/vdx8TY896o5mty7q8JftxiIAAAAw15gpA0U0bi2SM5m8eIrY5KRYjvWF5Sc7zsj6Za1lH2zVAEHMWtAv6Q4UrTs3AFQC3bjTpou+Im3cHTwdknPDMXnvdYuK0oArlc6ZzNuWItSBBQAAAKoVAVegSHSRPDCaEJ+3/AKEmi313WdPSFerVz76nhVlHWxVsURWOlu80hxgQQ9gfoklMpLJ5YuSPao1xZ/eedZcT7es7rRHndPNsGQmJ4s6KfMCAAAATIeAK1AkUWuRnMpkpd5TXgHXnLVw/87Pjpmae7901+qyzxhNWYt5/W+4oIPO1wDmn6FQomiNqHYdGZaR8ZTcfUNvUTbatK52e7BR/N56ewQAAADAZN4VcH3ppZfk05/+tGzbtk22bt0qn/rUp+T555+3n53e7//+78u6deuu+qGvA6qJZv0MjMbF21B+wcynXj8rZ4di8gvvWW6ynMqZZmPpcdUl3dRtBTD/aEBTN+8ai3AvSWdy8uybfbK4OyBrl7Tao87p9TlnfXS3sxkGAAAAXM0VEY0nnnhCPvvZz8quXbtk8+bNcv3115tfP/zww/KNb3zDftXU9PUf+chHJv340Ic+JLV2AOWaa64xj0C10HqjulAut+zR/SdH5dUDg7Ltmm7ZsLzdHi1f0XhGFnUExO8tTmduAKgkY5GU1NUV56j+q/sHTPD2nhsWF+X4v5Z66Wr1FS37FgAAAKhmNROammcZHByUu+++WxobG+VrX/uarF271rxg9+7dJgibyWTkySeflJ4eZx1uv/jFL8pf//Vfy/vf/3753//7f9ujMzMyEjWZFZPp6mqSoaGI/RnKXTW+X/ojdLxvXLL5fFktRIfDSfnS9/ZLd5tPfuUD66xFfOEZo22tARkLxezPSku7Xut/vxWLmqW2zGoD6lHcjo6g/Vn14lpbPXi/Kou+X33nw3Lo9JgEfB7XAVLdAPzit3fLigXN8st3r7ZHndPSNMlMXtYtaS1KbdmpzJdrreJ6Wx14ryoL79fbmNuiEvAzW73my3t7adb81a9+VdLptHzmM5+5FGxVmumqGa6pVGpGWa6Tef311+XRRx+Vzs5O+ZM/+RN7FKgOcWthG0tmyirYmsnm5NvPHDML44+/d5WjYOts0vqyOhla3B0su2ArAMyGcCwluiQsRjbqG4eHJJ3Jy53XL7JH3Iknc7Kw3V/SYCsAAABQTS7NnC/Wab3nnnvM4+Xuvfde8/jcc8+Zx0Lk83l55JFHzKPWbm1tdV9HDCgnw6Gk1HvKaxH6zK4+GQwl5GPbV0hzoMEeLU+aIaxHVTXYylFVAPORbjgNjSXE1+j+Gpiz5ls7DgzK8oVNsqAI9Va1FqyWy2ltarRHAAAAAFyNiRJpwOPo0aOmxurKlSvNE5dbvny5eU5fY1cgmLFvfvObcujQIdmyZYup5QpUE23wFI6ny6pZ1rmhqKndd8PaLlnV22KPlq9oImuaebUGWcwDmJ8i1n1EM/2LkUF68FRIxuMZ2bbBWQmod0qkctLbFeD0AQAAAFAAM7MPh8OmnIBmnzY0vDsbzuPxSFtbmyQSCYnFZl7PMZvNyt/8zd+YX//mb/6meQSqych4UrS/STGOgBaDLtj/+cWT0uSrl3tuXGyPlq9kOmuC1Qs66HoNYP4aGI1Z86/ibNy9sn9A2poaZe1i9xtuWgtWT0kEaGQIAAAAFMQEXDWQqnw+n3mcjNfrNY+FBFx/+MMfSn9/v6xfv17uvPNOexSoDplsXkbHk2XVUf+F3edlKJSUD922TBrLKOt2MnrsVf8bLukOSl1teZVkAIDZoiclxmPFqQN+djAq54Zism1Dt+uNQD3RpNdoLUtQLpuKAAAAQKWosSbUEwMDA7J9+3bp7e2Vp59+2n7qSnfddZf09fWZOq49PTM7pvbxj39c9uzZI3/+538uv/ALv2CPAtWhfzQu5wYj0hIoj6PwfUNR+e//8IZcv7ZL/vUHrrFHy5Mu5EPRlKxY1CKdrVNv9ABAtTs/HJXzI3Fp9ruvt/13P9wvB06Oyn95+FbXm27ReFramr2ybGGzPQIAAABgpkzANRKJyI033iidnZ3y4osv2k9d6bbbbpORkRHZsWOHNDdfffJ95swZ04DL7/fLSy+9NG327NWMjERNQ4nJdHU1ydBQxP4M5a5a3i/9fjx4alQaG+vKIjtT/z7/5wcHJBRLy7/96KaiZd22tQZkLDTzrPaZisYz0hpskN6uYEVkTtXW1khHR9D+rHpxra0evF+VIT+h95Ix6bHer0jkwmkjp8LW9f9/fXu3qd36/puW2KPO6KZYxLpOr1vSNqunJebLtVZxva0OvFeVhffrbcxtUQn4ma1e8+W9NZGiYDBoAqNjY2Om7uo76Zg+19jYOKNgq3ryySfNo2bGugm2AuVoPJaSbF7K5ii81uzrG4nLz29bWlYlDiaTyuTE46mVBR0BjqkCmNfiyaxkcxNFaZa148Cgebx5fbd5dCOeykpHs7fsS9MAAAAA5crM8DXosXr1asnlcnLy5EnzxOVOnDgh+Xxe1q5da49c3bPPPmse7733XvMIVAvN/BkYS4qvsTwWoiPhpPxs1zlZt7RVNixvs0fLk/63S6VysrS7qSgBBgCoZGORpNR73G88pTM5eePwkKxf2iatTe7K3Oh1OpebkM4WNssBAAAApy5FPO644w7z+NRTT5nHy10cm2njK52s79271/x669at5hGoFrFkVpKZrLVInvuAof6s/fCVUybT9oO3LC37jNFoIivdbb6yz8IFgFLL5vISjqbFW4Qs0t3HRiSZzplmWW4lUllpa2okuxUAAABw4VLE6P777zclAx577LFLwVKlTa++9KUvidfrlU9+8pP2qJgGWseOHZPR0VF75G3Hjx+XaDRqmmvNtMEWUCkGx+LSWF8e2ZmHTofkxPmI3LV1kTQVoeFKKWm3a09tjXS1kTUFAJF42tRwdbtRphtvr+4flEUdflnS7a4en34tLXHQRTNDAAAAwJVLUaPFixfL5z73ORMofeCBB+Thhx+Whx56SD7xiU9ILBaTRx55RDo6OuxXi3ntBz/4QXn88cftkbedPXvWPC5Z4q5pA1BuNPMnmsiIt2HuMzSz2bz8ZMcZa2HslRvXuc9qKiVdxOt/u8XdwbKpewsAc2k4nCxKduvRc+MyMp40zbLcBm8vZreWwz0OAAAAqGRXRD4efPBBefTRR2XLli2yc+dOk+mqJQG+8pWvyH333We/6uq0wZZasGCBeQSqxXA4IZ668ji2//L+AQlF0/JzNy81nUbLWSKVk5ZgY9ln4QLAbNDAZiKdlYZ69wHXHQcGJOird13Dm+xWAAAAoHhqrAn2hP3rsjUyEpV8fvK/ZldXkwwNRezPUO4q+f1KpXNy6MyYNPnr57xW6ngsLX/13b2yalGz/Kv3rbZHi6+tNSBjoZj9mTO5fF4SyZxp6lXvqcyagBrQ7uhwd1S3EnCtrR68X+WtfzQmI+GUBHwXMkmdXmtHx5Pyl0/sle1bFsp7r++1R52JJ7PS5KuXJT1N9sjsmy/XWsX1tjrwXlUW3q+3MbdFJeBntnrNl/eWs73ADGl2a11dTVk0pvrpzrNm8nDvTeVftiMWz8qizkDFBlsBoJi0buuolhNodD8Fe/3QkNRa96Qb1nXZI85cyG7NSyfZrQAAAEBREHAFZiCVyZlMIn/j3Ne1Oz0QkT3HR+XWTQtMrb1ylkxnxe+tl9Yy/3sCwGzRTNJcfsJ1PetMNidvHhmW9ctaXZdr0bIvrcFG8ZXBPQ4AAACoBgRcgRnQYGuttTie6+xWzWr98WtnTFmD91xb3jWSNWMqnc5Lb1fAZGABAERGwkmp97iffu09PirJdE5uWu++aaJmt1K7FQAAACgeAq7AVWgW0XAoKX7v3B+Jf/PosJwfics9Ny4uSrOVUoolstLV5iNjCgBsmWxewrGUNDa4u37rhtaOg0PS3eqTpT3uavDpSYQmXwPXagAAAKCICLgCV6HZSJqhOdfZrdq065k3zsmS7qBsWtFuj5YnzZaqqa0hYwoALhNNpEXvJG7vJ2eHYtI/Gpcb13e5/lrpTN5sjgEAAAAoHgKuwDQ0G2k4nBRfGWS3vri3X2LJrLz/5iVzHvy9Gq1R2NvhF08dlxgAuEjL07jNblWvHxyUxvo62byqwx5xRk9weBs8EvCS3QoAAAAUE9EQYBq6OFa1tXMb4ByPpeWVfQOycUW79HYG7NHypJm42lysOUijLAC4SJsvxlI51+VgoomM7Ds5JltWd7j+WolkTrrbfGW/iQcAmFo8mZFcPm9/BgAoFwRcgSnosfihUEL8ZZD587Nd50zNvvdt7bVHypP+HTXguqgzSKMsALhMJJ4uyqRr1+Eh00DxxnVd9ogzOesep827mv0N9ggAoNJo6bOj58bN/BsAUF4IuAJTGI0kZWJi7rNbB0bj8ubREbnpmm5payrvrNF4MicdLd6yCFIDQLnQzaiRcEq8LssJaKB156EhWbGwSTpd1sjW0i/d7f45v8cBAAqXt+4r50dicmYoan4NACg/BFyBSeixnMHRhPh9c1+79amdZ80i/Y7NC+2R8qT/zTSooMdTAQBvS6Zzks7kxONxN+06fCYk4/GM3LS+2x5xRgO3WkagJUB2KwBUGp1znxmIylAoaV3H66WOjTMAKEsEXIFJaM1U3S2uq53bH5HjfeNy7Ny4Cbb6Gss7azSWyMnCjoDUe+Y+SA0A5UTvKcXIJN1xcFCaAw2ydkmrPeKM1m7tbPXS2BAAKow2OzzRFzFlapoD9dTgBoAyxkwbeAfN0hwcS855gFP/Hk+9fsZkILnNZio1zdzSjtnlXvIAAGabKScwnhRvg7splzZxPHE+IlvXdroK3urfJz+Rl/Ymrz0CACh32ltC7wNHzoZN0DXor7efAQCUKwKuwDvEkllJZbKmmchc2n1sRPpHE/K+G3pdH0MttUQqJ71dAWoBAsA7JFJZ06CqzmU26ZtHh0UTma5b3WmPOKN/n7bmRmmo5zQCAJQz3SDTetvnhqJy8NSYeWyw1gQ+eiUAQEUg4Aq8w3A4YSYzcymTzcszu/pkYYdfNq1ot0fLUzKdlaCvXgJM/gDgXULRtNTVuduM0pqrbx0dkVW9LaakgBvZ3IR0NFNrGwDKWTyZMdmsR8+FJBxLS8DnkSbr+l/uSRgAgLdxxQYuk0rnTK29RpedpN167cCA+Xvcc+Pisq/NlMrkTWCYGlIAcCUNlI5FtJyAuw2po+fCEolnZOsad9mtWv4l4K0v+5rgADCf6bX6RH/E+tWE2WTzez3MswGgAhFwBS6jC2NtlDWXkxrd0X5hd7+sWdwiKxY226PlSY+mtgYarYkgdaQA4J3i1jVSg65uy628eWTYnCJYs6TFHnEmmc5LRwu1WwGgXOk94/RAVPS2QekXAKhsBFwBmxajHw5rs6y5ndw8/9Z5SWdzcvcNi+2R8qR1pbT0QXcbR1MBYDK6ief2+Gc0kZHDZ8KyeVWH2RB0ygR+rQV8E41WAKBsnR+JSSKV4SQCAFQBAq6ATY/w5yfcZyK5od1HdxwaMk1Ryj2QqZlbbcFGJoQAMAndxNP6rV6XJWq0gaLem653WU4gkc5Ke7PXVdAWAFA6ukmnyR9BNsYAoCow6wYsmq05GErMefDwmTfOWYvhGnnv9YvskfKk/71yuQnpbvPbIwCAy2lnaZkQVyVq9Fq76/CwLO4OSGeru024XE6kranR/gwAUE60TNfZwagE/dRrBYBqQcAVsMSshXE6k5f6Oez8eW4oKvtOjsktG3ukye+uC3WpxZM56WzxzXlzMQAoV5qpVF/vbtF8xlp8j4wnZeuaLnvEGS3/opm2brNtAQDFpyciTg1EpMG6RnMKAQCqB1d0wDI0lpAGlwtjNzSL6cnXz5qmKLdtWmCPlietA6gfnTReAYBJ5fJ5GY9npNFlwxNtltXgqZUNy9vsEWeSqay5ZpM1BQDlRdcA54Zi5uSY23sGAKC8EHDFvJdK5ySSSM/pJOfw2bDpSHrndYvKfrKlx2S72rx0TgWAKeh1UhfRbgKcem/SUw8bV7S7ut7q30OkRpoD5X1yAgDmo7FoSsLWR8BHTwQAqDYEXDHvhWMpqaupnbPMH80W/enrZ6Wj2SvXr3XXFKXUcrm8+e/U0VzeDb0AYC5F4mnXJWr2nRw1pQDcNstKpnPS2tQgnjqmfABQTlKZnPQNxQi2AkCVYvaNeU0zf0bCSfE2zt2Pwq4jw6Yj6d039JZ93Sat3bqwwz+ntW4BoJzlrftKKJJyfVpBm2V1tXqltytgjzijQdu2JkrAAEA50TVI33BUamtrpI4NMQCoSlzdMa9pR9BMLj9nE52stRB+7q0+WdIdlHVLW+3R8qS78N7GOmmlyzUATCmZykkuP2EW0U4NjiXk3HDMZLe6OX2hjVh0g8zvJXsKAMrJWCQlkXiG6zMAVDECrpjXQtG0eOrmronIm0eHzWRLa7eWczMT3YXXY6mLOgNSW8Z/TwCYa9FEWmpcBFvV7mMj1j1B5NqVHfaIMxr87Wrxcd0GgDKiNbp1U41SAgBQ3Qi4Yt7S2qljkaR4G+ZmsqP1UF/c0y+LuwKyYmGTPVqeEsmctAcbJeCtt0cAAJMZjaSs+4q7Jld7T4zKqkXN1mLc+TVXv46WN6BZFgCUD70unx2KmoSPci8lBgBwh6s85q14KmuCrm6OfbqhGUzhWFru2FLe2a3630gnhws6/PYIAGAymrWUyeZcNag6PRiVceve4Da7NZ3JS5OvQRpc1pIFABTP6HhSYomM+BrJbgWAakfAFfOWTng8c9T8SYOYL+zpl0Udflnd22yPlqdYMmuCrfUeFu0AMJ1oMiMy4W4Dbe+xUVN31W1dbw24drTSLAsAyoX2jjg/HJOgv3gnxk4NROS1/QPmVAMAoLwQcMW8pI1ENLvUzbFPN/YcHzHF8u/YsrCss1u1UVaDp07a6XANAFcViiSlscH51EpLzew/NWqCrW4yU3VTT28tAZqxAEBZSKazcrxv3LpH1BXldJ0GWF/a2y9/96NDcuRs2B4FAJQTAq6Yl6KJjDVRkTkJdprs1t3npafNJ2uXuMtgKrVYMiO9XYE5K7sAAJUik82bUjVuAqVHz41LIpWTTSva7RFndGHf3uylPiAAlAEtN6PBVq3bWowyL/r1vvWzY/LU62dl/dI2+fhdq8o6gQMA5itm4piXxsZT0lg/N9/++0+OyYj155d7dms8mZWOFq8EXTRtAYD5QoOtIu6u6XuPj4i/0SOrXJaayeYmpDVIsywAmGvpjAZbw6L7X5rd6tbgWEIe+/5+OXQ6JPfetFg+/t6V1ppmbk7sAQCmR8AV8442NIkm0tIwBwFXPf7z/O4+6Wr1yjXL2uzR8qN/Ty270NsZtEcAANMJR1NS73EecNUSLofOhGXDijZXmal67dYasDRkAYC5pWuOE+cjZi/O2+D+mqybcl/+wQFTo/vTH1gnt25cQGYrAJQxAq6YdyLxjNYSmJMJysHTIRkKJeU9m8s7uzWWyEpXq0+8LNgB4Kpy+byMx9KusowOnhozwVLX5QRSOXM6gUU4AMwdLTOjwVa9P7jdANNEiJ/uPCtPPHdCFnb45dc+co0s62mynwUAlCsCrph3RsaT4nXR1MQpk936Vp+0NzfKxuXuFtSlpBNDXah3tvjsEQDAdLTuql7j3QQ59xwfNWUAlnS7O1mQt/4eLf5G+zMAwGzTufSp/ojZRPO7bF6oJQm++cwxeXFPv2xd2ymfev9aafJTMgYAKgEBV8wrWmQ+mcpKvWf2ax0dPReW/tGEvOfahWXdhEqzW3vafeZIKgDg6jS7ta7O+XU9Yv3+E+fHZdPKdldBW12YB6zFfTHqBAIACqebb+eGYqZ5odtgayiakq/88KAcPhOSn7t5iXzo1mXWvYb5OQBUCq7YmFfG4+k5O2apO9PNgQa5dlX5Zrdms3mptyZybU1kRwHATOjiWhfFburz7To8aH0dkWtXdtgjziTTOelo9tqfAQBm28BoXEKRlAT97prOnhmMype/f8C6v6TlE/eskW0beigVAwAVhoAr5g1dFA+HE+JtnP3MH500nR6Iyq0be1w1Qym1WCorCzsDZf13BIByokHObH7C1cmFnQcHpafNZ2pnO2VKGlj/BDlqCgBzYjSSlIGxhDQF3AVb9cTD3/3okDTU18lDH1ovq3tb7GcAAJWEqArmjUQqawrYe+bgKI5mt/oa6+T6NZ32SPnRDtmBRo+0BFisA8BMxRIZqdMW1A5pXfHTAxG5dpW77FYtmdMSbJiTexwAzHdR615wdiAqQb/HVSbqqHVP+NYzx8xps4c+dI10utiIAwDMLWblmDf0yKfHRY09p4ZCCVN76ab13WanulxpZ2vNbuW4EgDM3GgkJQ0uGjHuPT5qwrWbVrgrN6Mbiu2UEwCAWaf1Wk+eHxef1+PqlJj2mfj6T4+aufgDd692XQMWADC3CLhiXtBuoaPj7mrsOfXS3n6TcXTzNd32SPmJJ7PSGmyUgNfdESgAmE8y2ZxZaLtpMrjvxKis7G0xNb6dyucnrEV+jfgbWZwDwGzK5vJysj9i7gNu7gV6Hf/Os8fNeuWX7lrFBhoAVAECrpgXtPO+NiRxU2PPiXAsLXuOjcrWtZ3iL9NgZs6aKOasSd6Cdr89AgCYCS0n4IaegBgOJ+W6tV32iDNaMkcX57N9jwOA+UxrZ58fjkkuOyGNDe5OsT2544wc6xuXD966VJYvaLJHAQCVjIAr5gWtkddQP/vf7q/sG5AJ659bNvbYI+VFJ4rRRFYWdwVcTxQBYL7RTTU395b9J8fM47Wr3dX3zk2ItAQb7c8AALNhLJoyjbL8Pndz6DcOD8mrBwZl24Zu2epyAw4AUD4IuKLq6ZHPaNzdotgJzTjSCdS1KzvMcf1ypJm/nS1eaWvi2BIAFEJL1UTiGWl0UZt7/8lRWdoTlJaA83tENpuXBk+teNk0A4BZo+Vkzg1pk6x6V/0PtBzBD18+Lat6m+XeG5fYowCAakDAFVVv3FoQi9TMejOoHQcHTROT2zYtsEfKi04UNat1QQelBACgUIlUzpwScHpv0XICQ6GkbFjeZo84k0znpLPZS8NDAJglWm/1zGDU1Gx10yRLv84PXjoprcEG+cU7V1IWBgCqDAFXVDVdDA9bC1pv4+xm/mhW7Wv7B2XN4hbpbvPZo+VD67ZmMhOypDvoaqIIAPNVJJaWujrni+MDpy6UE1i/1F3ANW99NLlouAUAKMzAWFySqazrZry7jgzLyHhK7r1p8Zw09gUAlBaRFlQ1zfxJZXKuuoY6sevIiMStidjt15ZfduvFuq1LugNM7gDAAb2Oau0+N7WvD5wcM5tezS6CpWnr/hZorHNV1gAAMHPjsZQMjiVMKQE3NDnj2Tf7ZLE1H1+7pNUeBQBUEwKuqGpha0FcN8vf5VpP78U9581CemlP+XUZ1WCr1m1tpW4rADiim3m53ITjEwIj4aQMWAv2a5a5y25NWX+P9mau5QAwGzRIemYwJgGvx3UZl1f3D1pz8ozcc8NiSsIAQJV610rhpZdekk9/+tOybds22bp1q3zqU5+S559/3n52ZjKZjHzlK1+R++67T7Zs2WK+zq/8yq/Iiy++aL8CKD2tizQ6nhRf4+xmcb5xZMg0Unnv9YvskfKhdVu1sQp1WwHAuVgyYy2Q7U8c0GZZyk39Vs2ynbAegz7KCQDAbNDMVr30e1yenNPGui/u6Telx8oxOQMAUBxX3C2eeOIJ+exnPyu7du2SzZs3y/XXX29+/fDDD8s3vvEN+1XTS6fT8mu/9mvyZ3/2Z9Lf3y+33367rF69Wl555RV56KGH5KmnnrJfCZSWHunP5SdmtQC9Nsl6YXe/LOsJyoqFzfZoedCO2vr3o24rALijpycaG5xfR7V+6+KugKtyAlouR3//bJfMAYD5SE8UjGgih9d9CZcXdp831/C7b1hsjwAAqtGlWfrg4KB8/vOfl6amJvnOd74jjz32mHz5y1+Wr33taxIMBuULX/iCDAwM2K+e2qOPPiovv/yy3HzzzfLTn/5U/vqv/1q++c1vyl/8xV+Y5//gD/5Astms+TVQSprdOtsL0Z2HhszxoDuv77VHyoOp2xrPSG9XkLqtAOCCblzFk1nr/uJs0a33pv7RhFzjIrtVaeNDygkAwOwYDidMo0S3x//DsbS8dmBQtqzqKMvGugCA4rkUjfrqV79qslM/85nPyNq1a+1RMZmumuGaSqWumuWaTCblb//2b6W5uVm++MUvmkDtRT//8z8vd999txk7evSoPQqUhi6Iw9G0q4YmhdK6Tlq7dfnCJlm+oLyOB8USWWlr8kpbsNEeAQA4oUdB9Si/U/tPjpnHDS7qt2rJHF3zax1BAEBpXcxu9RehTJk2ylJ3lmHpMQBAcV0KuF6s03rPPfeYx8vde++95vG5554zj1N54YUXJBaLmdqt7e3t9ujb/uqv/spkva5fv94eAUojHEuZx9ksQv/6wSGJJbPy3uvKawKlXay11tSizgBF+QHApVA0JQ0uTk9oOYFe63rc4mIDTJt2tVq/n/IwAFB6xcpuHQol5K2jw3LTNd3mGu7WxRNsek+ivAwAlB9zZdaLtWad1loT95UrV5onLrd8+XLznL5GXzuVffv2mcdrr73WZMt+//vfl0ceecSUKvinf/on00wLKDXN/NGi9v4i1FiaKQ1qvri3X1Yuai6r4vf63yKZysnS7qB46piIAYAbek3V46BOT0+MRVJyfiTuupxANjchrU2cWACAUitmduvTO89Jg6dO3nPtQnvEOT3NNx7LSJt1L1jV2+K4zA0AoHRMBCYcDpsAaWtrqzQ0vLuBg8fjkba2NkkkEiaDdSqnT582jxqU/cVf/EX5j//xP8rjjz8uX//61+X/+r/+L/n4xz9uasUCpaQ1VLO5vNTNYoBxx8FBU9PvzjLLbtVdb81s9Xvr7REAgFOJdNaa4zg/PbH/5Kh5dFNOQBsgeupqrOs65QQAoNSKld2qfR4OnQnJ7dcucHX91nV2LJ41AVdN9ND+DCRVAEB5MldnDaQqn2/qwt1e74XGDNMFXCORiHnUBltaz1Wbbu3cuVP+8R//0TTROnjwoPzO7/zOtFmygFuDY3HxzmLtVu0y+tLeAVnV2yxLut+uWzzXNADcFKiX9haaqgBAMUTiaWvhbX/iwIGTY7Kow+8qO1VPLbQ3N0otJWIAoKSKld16qj8i//LKabNWuG3TAnu0cBdOWWSk2Zrfr13SKk3+dydKAQDKR82EZWBgQLZv3y69vb3y9NNP209d6a677pK+vj5Tx7Wnp8cevdKv/MqvyCuvvCKNjY3ygx/8QJYsWWI/c6GhljbO0q/xf/7P/5Hbb7/dfgYonlgiI/tPjJgGUbPlqddOyw9eOiH//oHrZdmCZnt0bumEbDyelk2rOsTbQBYUABTD7qND0lBXZ+piF2rUWrT/yf95VT58+wq5+6al9mjhtEb5NcvbObkAACV28nxYQuMpCboIbI6Gk/I/vv6GaXL47395q/hcZLeGIklZ3NMkCzoC9ggAoJyZgKtmpt54443S2dkpL774ov3UlW677TYZGRmRHTt2SHPz5EGl3/iN35BnnnnGNN7SBlnv9D//5/+URx991Lzud3/3d+3RqxsZiZoA0mS6uppkaOhCZi3KX6nfr9MDEYklM+IrQp2lmdDarV/89m5Z3BWUT9yzxh6de5FYRrravLKg3d2EjJ+vC2pra6Sjo3yyl0uFa2314P0qPs10OnxmTJoCzhber+4fkB+/dkZ+82ObpOMdJw/aWgMyFpr6BNFF2WxestbP6Lolra6Pt5aj+XKtVVxvqwPvVWUp5P3Sa/4hveb76x1fb3Wd8JUfHpRQNC0Pf/iad137C6Flwpqt+4+epivG9Z+5LSoB19jqNV/eW5OiEQwGxe/3y9jYmDWZz5onLqdj+pxmrk4VbFXt7e3mUTNlJ3NxXL8WUGw6qQlHU7NaTuDNoyOSSOXkPZvdF78vllwuL7V1NdLZMnWJEABAYXQzT8T5Ildr93Vai203C+5kOiedzd6qDLYCQDkZCsdd1W7VEnr/+PwJGQwl5Bffu9LltT8rDfV1pi8D138AqBwm4KoX7tWrV0sul5OTJ0+aJy534sQJyefzsnbtWntkchefn6ox1tDQkHnUBlxAsWn3Z/1enq2JiO6WvrKvXxZ3BcqqdmssmZOF7X4K6ANAEYVjaWlocHZdTaSypoaf1txzIy8TEvRTSgAASkmzW0fHU65qtz77Zp8cPB2Se29cLKt7W+zRwpmTDdkJWdbTxNweACrMpav2HXfcYR6feuop83i5i2N33nmneZzK9u3bzaOWJbjYQOtyL7zwgnnU8gVAMWnX5qFQYla7Nh88PWaOCN3qovh9sWWyOWmsr5PWoPOGLACAK2VzeYkmMtLgoHarOno2LNovdN1S5wFXXXQ3ejzU5QaAEnOb3Xr4TEiee+u8XLe6Q7ZtmLz3yUxockcsmZWlPUFpnMUTfACA4ri0crj//vtNyYDHHntM9u7da4+K7NmzR770pS+J1+uVT37yk/aomOZXx44dk9HRUXtEZOXKlfLe975XxsfH5fd///dNo6yL9Gu88cYbsmrVKlMPFiim8VhatDqP1iOaDXpM6KW9A9LW1Ghq6ZWLeDInizr9s/bfAQDmAz3KrxFTp4tvLSegDVP0RIRT+nfoaGYzDQBKyW12ayqTkx++fEq623zywVuXuTp5p3VbF3b4pTnAtR8AKtGlgOvixYvlc5/7nESjUXnggQfk4Ycfloceekg+8YlPSCwWk0ceeUQ6OjrsV4t57Qc/+EF5/PHH7ZEL/uRP/kRWrFhhsmLvvvtu+c3f/E358Ic/LH/+539u6r/+1//6X6Wujh06FI8GPwfHkrNau/XMYFT6hmNyy8aesgluJlNZU9g/6OO4KQAUk27qabaTE5odqxmuWk7AzcKbcgIAUHrD4YSr7Naf7Ton4/GMfPjWZa5KAGiwtSXYKJ2t9GQAgEp1xV3gwQcflEcffVS2bNkiO3fuNJmuW7dula985Sty33332a+aXnd3t3z729+W3/iN3zDNuJ577jkJhULm9+v4pk2b7FcCxaFHbVKZrNQ7POrpxMt7B8TX6DFHhcqBBp1T2bws7KCYPgAUk15fQ9GU4+OcJ89HJG1dn92UE8hYv99bTzkBACglzW4dGU86zm49PxKT1w4Myo3rumSxi/4OiWTO3HN6uwJSy7weACpWjbWQ0JPYZW1kJGpq2Eymq6tJhobeXS8W5akU79ep/nHTkMTrorB9IYbDSfnr7+6VO7YslLuu77VH51Y8kZXmYL0stv77FhM/XxdoFnNHR/k0RisVrrXVg/ereLQ79JEzYWkKOMsu/cHLp2T3sRH5vQeum3JjsK01IGOhmP3Zu2mm04IOv3S2VHem03y51iqut9WB96qyXO39OjcUlVAsJQFv4dd7/Xn+8g8OSMS6Xv/bj250vC7RoK9eGVYtarbuGaU7vcfcFpWAa2z1mi/v7eylBAIloE2ixuPpWS0k/+q+AamzJik3re+2R+aWTiLyExPS3eq3RwAAxaKnKJwmGOmetjZPubBwdj7l0q/T5GuwPwMAFJvb7NYdBwfl/Ehc3n/TEsfBVl3XZHMTsnxBU0mDrQCA2UHAFRUtHEtbK1HndZYKFUtk5K1jw7JldUfZ1ErVztkL2v3SUM/EDACKLRRJWddXZ9OlPmvxrdlObssJNDZ46FANACXkpnar1vl+Ztc5s7m2cUWbPVoYrfedTOVkxcImyscAQJUg4IqKpRk/erzf1zh7i1Ddvdad51s29Ngjc0t3wjXQ2t7stUcAAMWiC+B40nmN8EOnQyY7ds3iFnukcJp11d5Mh2oAKJVUxl12649eO21OnH3w1mWOArb6e2OJrCxb0CR+B+UMAADliYArKpbWbU1bEyTPLDXL0iyj1w8OydolLWXTMTSezElvZ8DUYQIAFFfcus8op6coDp8OyZLuoKsFNOUEAKC0hkMJ8dTWOrrWHzoTkoOnQrJ9yyJpa3K2OTYez5gmW80BNtcAoJoQcEXFGoukxFM3e9/Cbx4ZNovvWzYusEfmlmZdtQYbpcnPQhwASmE8mhaPx1mwVe9Rg9YinnICAFC+NLt1dDwpPm/h19lcLi8/fvW0dLV65daNzk6/6Z/f5KuXDk6rAUDVIeCKiqTHPEetxexslRPQP++FPedNptKynrnv6KlHj3SSp7VbAQDFp80Ix2MpaXRYH/vQ6THzuG6J84Ar5QQAoLTGxpNS6zC7ddeRYQlF03LPjYulzmESiF7nu9vK4+QcAKC4CLiiIkXjaXPM0ukxz0LphEobn9x53aJZ+zOno827etr9ZD0BQInoIjibn3BcskXrt2rWk5sa2xr05RQDAJSGJlQMOewHoScQnt99XhZ3B2R1r7M63Vnra2iN8ECZNOIFABQXAVdUJG2W5Z2lYKNOxl60JlSa3aqdQ+eaTvC0lEJHC0ePAKBUdGOrrsbZNElLvpwejLosJ5ATX6PHcYYtAGB64VhaC2U72ljbeWjQJGO87/pex8kYWqqsp80vtWWQzAEAKD4Crqg4yXTWTFC0O/9s0NqtWsx++3ULyyK7Vf/dF3UGpK6WH18AKJWxaEoaGpxd84+cDeka3lU5gWQq7yo7FgAwNS3PNTgaF5/XY4/MnDbtfWFPv0nEWL6w2R4tjP75GmhtDnCKAQCqFREbVJyQtQierWCjqd1qHxda6XBCVUzJVNYU1mdyBgClo9f+hHW9rfc429jTrtVN/nqzOeZYzYQEvRwzBYBSiMTTkrGu9U4a8L66f8CcZLhra689UrhEMiedrd5ZbQAMAJhdXOFRUXQ3eNRhrSUnLma3lkvt1lTmQqOscvi7AEC10mCr0+usln05dm7cZLc6/Roa8K23FuHU6QaA4tM+EIOhhKPyZHp/eGnvgKxd0iKLu5w10tU/Pz+Rl/YmTjEAQDUj4IqKEk1mXDUxKYTJbt3Tb02myiS7NZ01GVN+Mp4AoKRM/VaHM6QT58dN0HWti/qt2rCrtanR/gwAUExanksDp07Kk728r19SmZy893oX2a2pC9f42SqPBgCYGwRcUVFGwklrcjI737ZvHR2R8Vi6fLJb03npaffbnwEASiVkXfudLoQPnQ6ZRlcrFjhvsqinOZr9lI4BgFIYDiWl3lP4ekI3417dPygbl7eZE2dOZXMT0tHssz8DAFQrAq6oGNqxORpPz0rH5tzF2q2a3bqofLJbA2S3AkBJ6b1GG6I4qaungdLDZ0KyurdZ6hymyJpGKrU14m0svJELAGB6eoIgHEs5KiegJ9/0BNydLrJbNTs24PWI30GzLgBAZSHgiooRTWTM42xkm755dMSajKVle5lkt6YzZLcCwGzQo55Or/tnh6ISS2Zl3dI2e6RwuhhvCTSa7tUAgOIajSTFU1tb8HVeT729fnBQtqzqkM4W57VXNeDb3UZ2KwDMBwRcUTFGx1Oz0kAkl7+Q3drbGZBVZZDdqhMzzWwluxUASi+aSIunzlmw89CZkMlOXb3Y+b0jm52Q5iDlBACg2PQEg5Yn8zpovvvK/gHJT0zIHVsW2SOF0/reWsog4GNODwDzAQFXVAQ93hlLZmaluPze46Mmu/WOLQvLIrtVs53IbgWA0tPO0aGo1m8tfHqkv1frty5f0CTeBmdHRfVrKD/lBACg6EbGU6JX2UKb72qDrZ2HhmTTinZpc9jQUK/v8WTWJHRwggEA5gcCrqgIWk6gxvqn1HQy9OKefulp88maxS326Nx5O7uVxTcAlJqWb9Ea3nW1hU+PhsNJcxJj/dJWe6Rwmv0U9NU7qh8LAJiaZqcOjMTE7yC79bUDg+b6fNu1C+yRwkUTWelq9UlzwFnAFgBQeZjRoyKMjCelsaH0364HTo2ZRfN7NpdXdms5/F0AoNppg0KnNLtVrV3iPOCaSuelhXICAFB0sUTGlBQotKGhnrLTgKsmYvS0OTtxpgkU2vS3p53arQAwnxBwRdnToGPCmqiUupyAZre+sLtfOpob5ZplzhueFAvZrQAwu8bjaVNfz4mDp0OyqNMvzQE3AdMJavsBQAkMh5LSWF/4nHrXkWFTUkCTMZzI5ydM0HZJd9DR6QkAQOXiqo+yF7EWwDUXytqV1NFz49I/Gpfbr11YcG2nUiC7FQBmj266aRdqJ5t7ep/qG47JuqXON+uy2bz1Z3tMFhQAoHg0iSGSzIivwPrYWmLm5X0DsrQnaAKmTkQSGVnUGSz4zwYAVD4Crih7WhPPSTfRQr2w+7zJTLp2Zbs9Mnf0yJPuwpPdCgCzI2ktyPMT1sTIwYbbxXIC61yUE0hmctLWRDkBACi2sWhS6hz0gthzfNRsxGkyhhPxRFZa/A3S3kzdVgCYjwi4oqzpjnQqnXV8xHOmTvVH5MxgVG7btKDg2k6lkEjlpafNS3YrAMwSPTJq2lc7cOhMSNqbGqWr1WuPFE6PnQZ9BFwBoJhy+byMhJPi8xaWvKGnHl7ae6GR7ureZnt05rTJlsZ4e7uCzOcBYJ4i4IqyZsoJzMIkRbNbNZv0+jWd9sjc0YmhxnybXNUBBAAU4kI5gcKnRboxeOJ8RNYubXV8v8rlJ8RTWzMrpzkAYD6JxDPWNbbw0wt6ckEb6Wp2q5Nru27iaRmCUieNAADKF3cAlC3dWR7RcgINpV2Aat29Y33jcsvGnrKYFCWSOelq81FYHwBmSd6632idPScB16PnwiY7df1SF+UE0llpDjRKLVlQAFBUw6GEtZYo7NpuGunu6Ze2pkbZsLzw2twXG98GaYIIAPMaER2ULa2nl8pkxVPiIOgLe86boO6N67rtkbmjEzzrf9IWpNYTAMyWZCqnF2BHWUyaBeX3emRxl7OGKkobZrUEOdUAAMWkWaYJ6/peaDPEk/0Rk5Chpcac1PXWNQyNbwEABFxRtiKJtNTVlPZbdCiUkIOnQnLT+m5pLHEm7UzoxFAL69d7OFYKALMlnso4WhhrB+sjZ8Oydkmro0W50o02RQdrACiusUhS6hxMqV/e229KjW1Z1WGPzFwqo9mtNL4FABBwRZnSBehoOCmNjaX9Fn1l34B46mrk5g1zn92qsrkJaW923nQFAFC48ZizcgKnBqJmcb1uifNyAuls3tTs9pRBw0YAqBbZXN6UJit0M0vrth49Ny43ru92dMpOs1sXdATIbgUAEHBFedLJSjo3UdIFaDSekd3HRmTL6k5TZ2muab0nrfVElhMAzB5tVBhLZhzV8NZyAnqfWrmoyR4pXDqdZ6MNAIpMGyE6KRWz48CA1NXWyA3ruuyRmUtncuK35vFktwIAFAFXlKVwNCV1Jd4Y3nFw0HSGvmVDjz0yt1KZvHS3+e3PAACzQTf4ZEIKXpTrSYzDZ0KyclGzyzIwEzRWAYAi0kaIQ6FkwUkMyVRW3jw6IhtXtDu6LifTeVlA7VYAgI2AK8qOdnseGS98klQI3YF+/dCgrFvaKh0tc59ZlMnmzXFWdsQBYHZF4mmpdTAbGhhNSDiWNvcRp/TIa319nXg52QAARaPZrUkHjXd3HR02c/JtDkqN6dpCm/CygQYAUBrXIuCKshNNZkzmqdMGJDPx1tER07VUu4+WA22W1d3mY0ccAGZZKJJy1DTx0JmQeVyzuMU8OqGlZFqDDfZnAAC3dIF7fiRmjvYXQn/fjgODsqQ7KAs7AvbozF2o3Up2KwDgAu3zQMAVZWcklJTG+tJ16dcJ1Sv7B2RxV8BMquaa1g/UWlEtARbdADCbNOCp2UxO6oVrOYHF3QFX2Uy5vEiTn2s/ABRLKJqyrusTBdflPnI2ZP3etKPs1kw2Z61dPGS3AgAu0ZMPBFxRVvSbMpJIO+oWPVMHT4/JWCQlt5ZJdmsskZWedr/UOTnTCgBwTJtliRSejaSlBM6PxGXdEuflBLQGrCZC+RooJwAAxaBlWvpH4xLwFp648er+QWkONMj6pW32yMzpqbkF7T6pJbsVAGCLJjIEXFFetOaSTlZKdRxHF7gv7R2QtqZGVwvlYslZE0PNrNK/DwBgdoWjaWloKHwqpNmtys19RLNr9WRDKcvnAMB8oiVidG5dV+CphYHRuJzsj8hN67sKviZntQ+Dp1aaOKkGALhMLJkl4IryocHQoXBCvI2lKydwZjAqfcMxuWVjT1kscmNJ3REnuxUAZptmQmnNcF0oF+rQ6ZB0NDdKZ6vPHilc2lqktwTZbAOAYtDyMANjCQk4ONb/2oFBkwCxdW2XPTJziXROutr8ZLcCAC7RdYYmVxDlQdmIp7KOa+nN1Mt7B8TX6JHrVnfYI3NHd8Tr62qklQU3AMw6bVZ44Vh/YYvkZDprMqHWujwloX+qv4QbjAAwn4yEE+aaXmhCRTyZkT3HR2TzqnazRiiE/nli/a+ZWtwAgMtoqUzr9kDAFeVjdDxZcIH7QgyHk6ar9I3ru6w/Z+4XufFkVhZ2+DlOCgBzIBJPO9rgO3Zu3DRfXLfUecBVG6x4rYV9OdyLAKDS6cJWT8n5vYXXxH7j8LBkcxNy8zU99sjMJdM5aW1qKOn6BQBQefT+oGEe7g4oC5pyrZ1BvQ2lW3zuODAgddZ3/U3rC+8+Wmy62G6w/l2byW4FgFmnWUlO7zm6cedv9MjirqA9UrhUOi9tXP8BoCiGQgmpq6ktOIlBN89ePzgoKxY2SXdb4SVi9GReR7PX/gwAgAtiiYx4PDUEXFEeNNPIydHOmdIA5+5jo7JheZsEHdR2KjbtZrqwnXpPADAXdNc5ay20C12c5/J5OXo2LGuWtLg6nZC3PpzUGQQAXEnLvIyMJ8XnLXwD7ei5sIzHM3Kjg2QMDbY21nsKLkMAAKh+kUTGnH4g4IqyoMf9S5nduv/kmKQyObneQTH8YtNjTzo5a6abKQDMiVgy42gCdHogaoK161zUb9WMKk9tTUnveQAwX4yOp6SursZR0sabR4dNGYK1i1vskZlLprLS1eotWbIIAKAy6YZcLpc3jdEJuGLOaeMS/WioL93iU+szaUfpZT3Oj4AWiy7WF7T7maABwBwJR1PS2FD4FOjQ6ZB4rIX9ykXN9kjhdPOvNdjAPQAAXNKSZCa7taHwLFPdeDt8OiybV3VIXYH1vC+eyiN5AgDwTjrXv4iAK+acLny1tmqpaF2nM4NRk9061wvcVDonAW99WZQ1AID5SHed46lswQ2rdIF9+ExIVixsdrVBqM1ZmuhoDQCuXSxJ5qTEy+5jI5K3fu91qzvtkZnT0mBtTY2OGi8CAKqbnoC4GHfiLoE5pfXwtJxAKesfaXarTsS2rOqwR+aO7nb0kN0KAHNGT1SIFH4NHhxLmEZb65Y6LyeggQFFzT8AcEevp4NjztYQ+nvfPDIsvZ0BR82yNLNWA64AALyTqd9afyHUSsAVcyoSS0veWn+6aT4yHZ0Q6Q621tub6wYl2rjL2+CRgJeFNgDMlXAsJfV1hd9zDp4Omce1i50HXDW7NuitJysKAFzSzbNURk8rFH497RuOyVAoKdetKTy7Va/jOp9n4wwA8E66oRdPZqy1BgFXzDGzM21NdnyNpfs2PHgqZCZkW9cWPqEqtmQqb3bRyW4FgLmhx0fHY2lHJQEOnhqTJd1BCfqdb96l0nlpDlJOAADc0tqtTjev3jwyYn7vxhVt9sjM6bqis4VmWQCAd0tn86ZB7sWEQgKumDM6YUmmC6+jV4g3jgyZ5iRuGpwUg+lSV1cjzdTtA4A5ozWVLp8EzdRYJCUDYwlZ76KcwEWccgAAdzTLNBRJi6+x8DWEnjjbe2JUNixvM5mqhdBkEQ200iwLADCZtGmY9fY6g4Ar5ozWbnVyDGimRseTcvJ8RK5f0znnu9DxVM5kt5aqdAIA4OqiiYzUOLgOHzw9Zh7XLys8G+oiDfTqxluji4ZbAIALpWF0Petkfn/gVMj0VHBSTkCTRTqaaZYFAJhcPJmV2sum+twtMCd0d1knS96G0i08dx0ZtiZi4mhCVUy6yFatQYrrA8BcGoukHd13tDxNT5vPVZMUXeDrKQeOoQKAc1oaZiiUcJTdqnR9oNfyZT1Be2TmsrkJ6/d67c8AALhSNJGWhsuSCt8VcH3ppZfk05/+tGzbtk22bt0qn/rUp+T555+3n726bDYr1157raxbt27Sj+3bt9uvxHw2Fk1Jjf5TooVnLp833UfXLG6Vpjk+xp9I5qSrxctuOADMoVQ6J+lMtuBrsWbFnhmMuspuVZnsBPVbAcAlzR7S66mTefVwKCGn+iNy3eqOgtcgeg8J+upplgUAmJRuCOrJ5svvT1fcqZ544gn57Gc/K7t27ZLNmzfL9ddfb3798MMPyze+8Q37VdM7evSopNNpWbp0qXzkIx9518f73/9++5WYrzTjc9g0yypdduuRM2GJWROyuW6WpbWe8hN5aW9mNxwA5lI0mbH+v/BNvkOnQ+bRbf3WGpkQX4H1AgEAVxoJJ6XB4yxh47X9/aJx1i2rC18fpDLa/NZvfwYAwJUu1G+9stzNpYDr4OCgfP7zn5empib5zne+I4899ph8+ctflq997WsSDAblC1/4ggwMDNivntqBAwfM4/333y//7b/9t3d9/OEf/qF5HvOXLnqzpolU4TvTM/XG4SFp8tfL6t4We2RuJFI5aW1qdNQRGwBQPKFIShobCr/vaP1WPX6qdbid0gYvjQ2ektYtB4Bqp4vZ8ZheywufV2vChwZcVy1qLrjplV7DG+praXoIAJiSbszJxIVykhddmvl/9atfNZmpn/nMZ2Tt2rX2qJhMV81wTaVSM8py3b9/v3ncuHGjeQTeaWgs4WiiNFOD1tc/em5ctq7tmvMmVRpY7mxxvkgHALini+V4KlPw5lcynZUT5yMmu9VNCRyt39pKOQEAcCUUS5lrsZPr8fG+cQlH046bZWkdbzf3AQBAdYslMu9KKrz02cU6rffcc495vNy9995rHp977jnzOJ2LGa4EXDGZeDIjMeujlF2an9993hQqvvmabntkblDrCQDKQ9xaLL9jw3lGjpwNm6wot/Vb83kx9wMAgDNuS5K9dXRY/F6PrF1SWHkY/XNra2oKzooFAMwv2vfh8oZZynymdSa19mptba2sXLnSPHG55cuXm+f0NfraqehzGnDt6uqSp59+Wj7+8Y+bOrC33HKL/If/8B/k+PHj9isxX42EE1JXV7rdYS2Gv+/EqNx0TfecBzo1o4laTwAw90KRpDkOWqiDp0ImULq4K2CPFE7nRpoU5aV+KwA45qYkWTKVlYOnQ7J1XXfBzba0SZeWlKmz1sIAAExGm7Zr/MczWcA1HA6bcgKtra3S0PDu3TuPxyNtbW2SSCQkFovZo+925swZiUajMjQ0JH/0R38kjY2Nsm3bNvP4gx/8wARgd+7cab8a841OkgbHkuIvYSD0hT39pkbeLRt77JG5odmt+u9JrScAmFs6AYrECz9ZoWUIjp4LyzqX5QTSmbwJ2s51iRsAqGSaVOH0hNy+k2PWvWBCbtqwwB6ZGd0w03+0jjcAAFNJpfP2r65kAq4aSFU+39S1Jr3eC13Wpwu4Xqzf2tPTI0888YQ8/vjj8uijj8pPf/pT+dVf/VXze3/3d3/X1IPF/BONp63/10yf0iw6R8eTsuf4iNywrksC3rk9uplM52RhZ6Bk/64AgJnR5oUXskwLux5rvT8Numr9Vjc04Er9VgBwTutp61FNpz0gtJxAV6tXlnQH7ZGZMc1vg41S7yldKTQAQOXT+9RkK40aaxEyMTAwINu3b5fe3l5TCmAyd911l/T19Zk6rhpQnYwuaPr7+035gXe+Jp/PmwzXffv2yf/4H/9DPvShD9nPYL44cHLU1EEqVf3Wrz95SN44OCh/8Ks3S0tg7naitU6tz+uRNUvc1fwDALh3un9cxsZTEiiwhuo//OSg7LYW6X/y67cVfAT1cqFYUjat6BQv9bwBwJGzg1EZGotLk7/wzatB6/f96f9vh3z4PSvk7huX2qMzE4omZcOKDvHPcSIHAKC8HTsXkngi+66ylibgGolE5MYbb5TOzk558cUX7aeudNttt8nIyIjs2LFDmpub7dHCfPGLX5S//uu/Ntmun/vc5+zRqxsZiZpA3WS6uppkaChif4ZypUfsD50Zk2W9bTIWmjpL2qlQJCV/+cReuXF9l3xgW2GTqWLSTQc9urpmcWtVNMvi5+sCPQrc0VFYVkQl4lpbPXi/Lshb1+SDp8bE21BX0JF+/Tn47994U1b3tsjHtr+7tv1MmXpO6bxcs6xt2gxb3q8L5su1VnG9rQ68V6Wn19EDJ8dMwysnpVmefuOcvLjnvPz7X9osSxfNfB2iaxctU7ZyUYs9Ul2Y26IScI2tXtX03moM6MAU6w2TshEMBsXv98vY2Jhks1nzxOV0TJ/TWqxOg61KA7oqmUyaR8wf4XjKdPgslRf39FuLWZHbNhVWm6nYEqmstAUbqyLYCgCVLpnKmfrhhS7STw1EzFHS9cvcnVTQYKuWE6C8DAA4E4mlReNlToKtugjec2xEVi5qLjg7VpufdLVOXW4PAACVzuZNnfDJ7lMm4KoLgdWrV0sul5OTJ0+aJy534sQJ0ZIAa9eutUcmpzVb//2///fy0ksv2SNXOnv2rHlcsGBug2KYXTrZGQklxddYmlICYWsituvosFy3plOaA3NXJ0//PbO5Celu89sjAIC5FE2kHS3SD54KiaeuRlZZi3Q3ctY9wckRWADAhbn1UFjXEM7Kupzsj5h1wpZVF5J+ZiqXy0t9XW3BpWgAAPOPbtBZt6tJXbp73XHHHebxqaeeMo+Xuzh25513msepnDlzRv7lX/5Fvvvd79ojb9NGWT/+8Y/Nr2+//XbziPkhnspKxpq41LmogTedl/b0WzMy6/vq2rkN5MeTOels8Tku6A8AKK7RSMoc7ymELvAPnwmZY6QNLmuOa3drbwMnHgDACT1poB9Om1a9dXTE9I5YV2DzQ/0zO1q9JT2dBwCoDtrDZ6rb1KUI2P33329KBjz22GOyd+9ee1Rkz5498qUvfUm8Xq988pOftEfFNNA6duyYjI6O2iNimmLV1dXJ9773vUvBVZXJZORP/uRP5Ny5c6Y516ZNm+xnMB9ofVU3DUemE4mn5Y3DQ7JldYfpIjpXtDaQLtK1AyoAYO5p/b1MJlfw/WdgLGEyotYtcVe3L5PNmfIyWgMQAFC4sUjSnDZwQjOOtKbexhVtBV+H89bHXDbgBQBUDu3hM9nGoClrZv9aFi9ebBpZRaNReeCBB+Thhx+Whx56SD7xiU9ILBaTRx55RDo6OuxXi3ntBz/4QVNG4CItS/D7v//75te/8zu/YwKw+njPPffIt771LVm5cqX82Z/9mXke84MWuh+LpEpWTuDV/YOmKcpcZ7fGElnpbvM53oEHABRXNJmx/r/whbpmtyptfuhGOj0xpxuBAFDJMll3awhttKVfY8vqwsoJaKA26PWYzFgAAKaj8a5kWhM83r3mOD8Sfzvgqh588EF59NFHZcuWLbJz506T6bp161b5yle+Ivfdd5/9qul9+tOfNq9/z3veI6dOnZJnnnnGZMf+xm/8hnz729++ImiL6qeBSC10X4qGIWlrQqTZreuXtkl789xlluoPmdYInMu/AwDgSqFIUhobCs8u1YBrb2dAgn53tfvyE3kJeKn/BwBOjMfTWjHM8RrirWMj1ty8URZ3BeyRmUmn86ZEGAAAV6MNctVk96ozg1GpmdBz0GVuZCRqjmxPpqurSYaGIvZnKDcn+sYlnctd2iVuaw3IWChmfu3WawcG5EevnpHPfnC9LOkO2qOzLxLLyMIOv3RWYSdTfr4u0IB6R8fcfY/NFq611WO+v1+a1XTw9GjBDau0TM3//OZuuWtrr9yxeaE9Wjj9OUqmsrJ+efuMagDy83XBfLnWKq631YH3qjR0eXrw9JhpXOVxUJZFy5n9r+/skfdev0i2b1lkj159HaI/k/FkVq5Z3iZ1tYX/uZWEuS0qAdfY6lUt7+3oeFL6hmOTJmp84+mjV2a4AsWkGaiRRLokR3L0xqnlBHTXei6Drfr30LV0C8dGAaBsxKx7j5Pt5CNnw+Zxrcv6rXq0qLWpkYYrAOBALJk1G2dOgq1q9/ER87hlVWEnKxPprDmxVu3BVgBAcWi8y+N593xfNw41w5W7CUpGjwLVOKifNxOHTodMXadbN85t7VbTxbTFS1MUACgjY1Fnm31aTqA12CDdLk8s5HJ5aabhCgA4ohlDTufWmgzx5pFhWb6wqeCECOvSTe1tAMCMaFBVS2g2TNLHZzSSMicmiBKhJPSbbyRcumZZL+/rl7amRlm31F1TEzf031Hrt1K7FQDKh3YEjSYy0lBf2BQnk83J8b5xWbuk1VXdcb036O/3N3rsEQDATGlmaziaFm+DszXEkbMhCVm//6b13fbIzOif22gtmku1dgEAVJe0dd/I5SdMiZZ3OjMQNY8EXFESmvmZshavTo8CTUdTs88OxWTbhu5Jv7lnizkyGmykiykAlJF4KivaaaXQoOnx8xHJ5iZMwNUNvTe0BBvm9P4EAJVKT8jpATmnG1+vHRiU5kCDrCvwWq7X7s5Wr6sNNwDA/JHK5GRiihJmGrPSjUMCriiJsUhS6kr03fXKvgHzzXvd6k57ZG5kshN0MQWAMhOOpiatpXQ1h0+HzAbash53dcGz1r2But4AUDg9ITAUSojPYXbr4FhCTpyPyI3rugra9NI/Vz+aC2y0CACYv+LJjExSTcDQgKv2GyLgiqLTZlmjkWRJjlNq3VbtWnqDNZFqmMPM0lQ6JwGvR/zWBwCgPGjtPidHUXWhrQ2zVvU2S52L3UL9OpqZRTkBAChcIpU16winJ+R2HBy0Fr81snVtYUkZOq9vCTTSkwEAMGOReMa6b7x7zaH3suFw0jR3566CotNC97XWP6U4kvPq/gHzdW++prC6TMWWyuSlp91vfwYAKAdaTiDvoJxA33DM1H11W04gbd0bgr56a8HP9AoACjU6nnJ8/Uxa1//dx0Zk08oO8Xvr7dGZSWcnTBNcAABmQnv5aCka3eR7J81uVQRcUXRacF6j+T5v8bNPdadg15Fh2bSiXZrm8MiPKapfX2cyXAEA5WM8lp504nM1h8+ERWO0axa32CPOaC2ntiBHUgGgUNrwcCzqvOHurqPDZo5+c4HNsnTRrPcNTq0BAGYqlc6bx8mSPDTgWmuN91JSAMU2Fk2ax1I0C3nj8JCZSN2ysccemRvaEKynjaL6AFBO8hMTEookHXW2PnwmJEu7g9ZC392CW+8KAV9hmVUAAD2amTZlWZzMr7WczOsHh2RpT1AWdBR2Ai1pzevbmxvN4hgAgJlIprNm3j8ZDbgu6PCZcgMEXFE0ujM9OJooyQ5xzvra2nV0xcImWTCHR/n176G74M0BGqIAQDnR46Q5a9Fd6IZfKJqSgbFEEcoJ5Mz9b7JaTgCAqWmgdSiUdJzdeuRc2PR5cFJyTO8bzX7m9QCAmdNSZJM16dV4kZYq03ICioArikYXrTphKkV26/6TY6Yo8Vxnt8ZTOelu85Xk3xEA4Nx4PO3o2qzlBNTape4Crnq0qK2JGoAAUCg9Paa18JxuWO04MCjN/npZV+B1XBfG2ijLaaAXADD/aMxLA64Nk9yzzo/GJZubIOCK4tL6R4PWN1cpslv1G/qV/QPS2eKV1b3u6uu5of+OupRvDbILDgDlRO8Tmt3ktJxAR7PXfLgxYd0gKCcAAIXTpA2nhwOGQgk53jcuN6zvlrrawpa2iXRO2psoEwYAmDktcznVqbrLG2YpAq4oinA0LVnrm66uBJ2ZTw9E5fxIXLZt6JnTCVE8kTXlDOg+DQDlRTOjstnC70Faf+lkf0TWLnG3macTL299nWmoCACYOS1JNjqu9bedJW3sODgoddaid+vaTntk5qylizQHaHQIAJi5ZCYnE9b9YzIacG0NNlxq8k7kCK5pofqBsdJkt6pX9g2YRiabV3XYI7NPjxzpZK61iexWACg3sURGnOzHHTodMvewa5a32SPOpEyWFPcHAChUVJtlWY9OSsLoptlbR0dk08p2CXgLO2FgygnU1Tg6GQEAmL/iycykpzL0xN2Zgeil7FZFwBWuad28TEabSRX/20l3vA+dCcmN67pMjaW5EktmpacjQHYrAJSh0UhKGh0smvedGDW70L2dAXvEGd3lppwAABQmk83JuZG4+BwGPfccHzUnDG5aX3izrGQ6b0rJUE4AAFAI7S00Wc1xLW+mcSMCrigajeIPjCbE5y3N7vCr+y8cE3IykSoWPeqkgVZdlAMAyksqkzNHewrdlNPd6eN9Edm4ot3VgluzpLRLKVlSADBzuoY4NxQz/RE8DpIq9Pe/cWhIFnb4ZZGDTbOc9fsvHvkEAGAmtK+PljLz1L177XCpfmsPAVcUiXYVTWWyjruKTieRysqbR4dlk7UYDvrnLnMonsyZ2q2FFuIHAJSedgmtmaKO0nQOnApJ3lpwa8DVDZ10tTU1kiUFAAUYGU+aU3JOS5KdG47JwFhCtq7tskdmTpMpKCcAACiUzvut5cOk834NuGo/h+5Wnz1CwBUuXegqWppF5huHh8wxoW0be+yR2Ze1/nydkLUGqc0HAOVoTJutNBY+ndFyAp0tXulpe3tS5ITWgG32c48AgJnSpIq+4ZgEXZRi0ezWBk+tqd9aqFQqLx3W9Z+NMgBAIWLJjEyVh6cB18XdgSvuLQRc4ZimU7vpKjod/dqvHRiU5QubTHbpXNEM3gUdfkeF/AEApaXlBOLWwr3QUxaReFpO9rsvJ6DB1rq6WvE2kiUFADOhc/zTAxeygJzOr7VZ1t4TYybYql+nUHq6oclHOQEAQGEisbR133l3GFU3EodCySvqtyoCrnAslsiadOpSBCMPnBwzxYhv2TB32a2aXat1+VoCZC4BQDky5QRMBcDC7LfuMWrj8jbz6JQu+vUERC1ZUgAwI9r7IZ3NOWp0eNGeY6OmLIDjcgLWYplyAgCAQuiGYTyl9VvfHUY9O2TXbyXgimIZCSelYZLovltaBP+VfQOmc+iaxS326OzTXYqF7WS3AkC5clNOYEG7Tzovq7HkRDYn0hwgSwoAZmI8lpKhUEKCPuen43SdsPOw82ZZWk6gvZm62wCAwlytfqsO977jvkTAFY6kMzmJJNIlCbjqMc++kbhs29A9Z5OhjO6813ukmdqtAFCWnJYTCEVScnYo5rpZlpYT0P04f2Pxy+oAQLXRa6ZeewNej6v5/Tnraww6bJalKCcAAHBi2vqtA1GTrNfwjjI3BFzhiHYV1WOcpQiIPv/WeVNE/7rVnfbI7Euk8rKw088xUQAoU07LCew7OWoeNy53F3DVgG9LsIFTEAAwA1FroarH+T0ed8tPbarrtFmWaYZLOQEAgANT1W/Ve9u54di7ygkoAq4omB7lGQ4lxFeCJiGnByImw/W2TT2uJ2ROpdI5k7HU5KJzKgCgtJyXExgzx31am9ydYMhmJ0z9VgDA1RWjFFky5a5ZVjydlQ7KCQAACjRd/da+4ZhkcxOybEGTPfI2Aq4omHbuT5uGUsX/9nl+93nxez2OjwkVg9bm0OxWJmMAUJ6clhMYthb8/aNx1+UEdONRk2t9lBMAgKvSUl3RuGYGuUvW2HPcebMslZ/IS5OfcgIAgMJMV7/19IDdMKuHDFcUQSiaEk9d8YORmoZ97Ny43LKh5121L2aLNsrSjKWAl+xWAChXjssJnLhQTmDD8jbz6JQGfJv99ZPucgMArjQez1j/764UmdtmWVpOwFvvEW8DG2UAgMJMV79VT2l3tXonjSGxUkBBNJV6VI9xlmCy8sJb501NpZvWd9sjs0snchlrMtbd5q5rNQCgtJyUE9BrvAZcl/UEpTngLsMpnclLa5PX/gwAMJULpcj0mu0umcJtsyzNTups89ufAQAwc1PVb9WGkKcHo7K0593lBBQBVxQklsiaVOpiNwkZGI3LoTMh2bahRxrnqJC9lkpob27kiCgAlDGn5QR0oa4lBYpSTsCitb4BANPTQGcqm7Ou2e6WnZrdql/DSbMslbeu3a0uN9sAAPPPdPVbB8biJhFDEzomQ8AVBSlGwfvJaO1W/bo3XzM32a26M6E/SF2t7HwDQDlzWk5Aa//padZrXJYT0JMQemTIbfAAAOaDcDQlbquvaMkvPaGweVWHozqwet3W03leNsoAAAWarn7rqf4L9VvJcIVr6UxOIol00QOuQ6GE7D85ZkoJzFV2aTyZla4Wn+ti/gCA0nJSTkA31fYeH5HVvS2ua3SnMnlzGgIAMD299o5Y12yfy1Jkbx4dNh2gb1znrJxAylosc90GADhxtfqtrcGGKcuVEXDFjI3H0yarqNjd+1/c028yhW7Z2GOPzC7NbNV/p44WarcCQDlzWk7gZH/ENG3R7Ci3tKQAjRUB4Op0kZrLT7gqRabX3J2HhmRxd0B62p2dRNOv0eSjnAAAoHBT1W/Ve8upgagsmyK7VRFwxYzoN9NwKCE+b3EzQLUB157jI3LDuq45W8DGkznpafNxPBQAypzjcgLHRswJhrVLWu0RZzLZnDmJ0cBpCAC4Ks1udXsy7sT5iLVeSMmN65yVHdPrtpYSmKseEQCAypXNTV2/VXtDaMmbpQsIuMIl/UZKZ/OTfqO58fxb56W2pkZunaPsVs2W0kV4ezPdpgGg3Gk5gcaGwu5Dutg+cGrM1G51u7GWSuelrYljqQBwNXrtjcQ1K8hdoPP1Q4Nmo2vDMmf1t5MpLQPDPB8AUDiNF01MWb81Yh6napilCLhiRkLRlHjqiltKQDu6vXVsxDTKavLP/jEfzdpNpXKyuCvg6qgTAKD0tAZf3PooNLv04OmQ2TAsRjkB7XLNsVQAuDot42ItUV2VIhuPpeWQdQ2/bk2HeBxumE1Yf3zQRxkYAEDhpq/fGjX3l+mSMQi44qo0jVqP8mh3z2J6euc5s+v9ns0L7ZHZFUtkpbPVJ35q8QFA2dNMKSeTlt3HRqQl0DDt7vNMaONIzbLiWCoATE+TGkbCSWvt4O56uevIsMksumGts2ZZpgyM9XegKS4AwInp67dGzPpiuo1FAq64Kq2Zl7cmO8XMAtVubkfOhuX2axeYBexsy2bz5t+nu41GWQBQ7szi3Wz8FbZojsYzcrxvXK5d1e4qy0qlMnnp4FgqAFxVMp0zpxLclHHRprZvHB6SVb3NjksCaDkBrtsAACemq98aiqYlYq0zpqvfqgi44qp0h7rQmnnT0YXzUzvPmvTrbRucFcB3K5bKSm9noOg1aQEAxaeLd80wLfRI6Z4TIyY7avNKd+UE9L6lX6jJz4kIALiawVBC6lyWIjt8JmwWs06bZakJ6x/KCQAAnND6rWqypA1NIFTLeqYOuOr6gWgTpqXfZBqcLOZRHJ1AnR2MyZ3XLZJ6z+wf8Ykns9Lib5DmAHX4AKASaB0/J6cs9hwbkUUdflM+xg2tARv0NczJPQsAKonOs8ORlPga3V0vXz84aObqaxa32COF0U26gNdTcN1vAACU1m+d6oDcqYGouc91tU59iiKdyRNwxfTCsVRRv0ny+Ql5+o2z0tHcKNev6bRHZ4/++bnchCzsDLg+XgoAKD1tVDUyrrUAC7sbDY4lpH80IdcWoVmWHo1ts+5bAIDp9Y/GpKG+1tU8W6/5J85HZOvaTsclzcx1u4lyAgAAZ6aq36pO90dkSXfTtPc6Aq6YllnkhpKud6gvt+PAgAxZX/N9WxcXtSbsTEUTWVnY6ad4PgBUiGQqK7lcXuoKLAGjzbJqrUnQphXt9ogzehyoxvqHY6kAMD3t+6AfXpf9GXYeGjLX761rnDXLuogyMAAAJ0z91uTk9Vu1ke9oJDWjhrwEXDGlhLXIzThY5E5FG1X96JWTsqgzIOuXtdqjs0cX7J66GmlntxsAKoYWpS+0FqCeZthzfMQ0Wwm4DJRqllRzoJ6a3wAwDd2c6h+JSWOBzQ3fKZPNyZtHhs1aIegwYKol0fTaTxkYAIAT2j9C64BPXr81ah6na5ila5Faa+nA6gFTGh1Puuou+k47Dg5KKJKSu2/odXXMyKlEKifdrb45yawFABROJytjES0nUFi21Mn+iGm2srkI5QQy2Qlpo8s1AEwrksiY+q1uT5HtPjZqFro3XeO8WZZulLVz3QYAOKTlBDRZbzKnBiImTraw3W+PvJvWEW/2NxBwxeQ0hVqzirwud6kv0m+4F/b0y/plbbJiYbM9Ont0113/aQnSKAsAKkU8lbV3iAvbKNNyArroX7vE3WkKU07A+qO18QoAYHJahuz8cFx8XnfrBr3mvnZgQBZYi9il3Vc/qjmZC9dtysAAAJwLxVJTbiCe7o/KEuseNd36JJPNm7I2BFwxqWg8fWnCUgw7Dw+ZEgU/d8tye2R26U55a7CRo0UAUEE0u9VT4EkLPUp64NSYbFje5vqUxsV7R52eCQIATGo8mpJUOut6nq2NsrTXw7YN3Y7XIJrd2hJooAwMAMARXUtoOczJSmvqSY7BUOKq9VsnrFuYr5GAK6YwHNYjnMUJTmq27Mt7B2T5wibrY/azW5XuMHRwtAgAKobTkxb7T46Za/51azrtEee0nEBrU6P9GQDgnXL5vJwfiYu/CCcBXt0/YE4UbHTR7DBtXf/buG4DABxKJDP2r97tzODM6rd6amulob6WgCveTTNR4+ms9Q1SnIDrW0dHTMfS91y70B6ZXVrOwNfoMR8AgMqgO8gyIQVnOWmzFd1gW9wVsEecuTBZEvFz7wCAKenGmDbZLfQ0wjuNjCflyNmw3LCuy3F2qilBY90zAl7KCQAAnAnH01JfP/l9SOu31tXWSG/H1OsMzZBt8jeYNQwBV7xLOJqSuiKVEtCJz0t7+2VRZ0BWLJx6F6CUkum8dLV4i1YeAQBQerr41p3hQujpDN15vm5Nh+trfiKdldYmL40WAWAKuqg8PxyTgM/9xtSOA4PmenvjOufNspLWdVubZXHdBgA4ofGr8Vhmyvqtp/oj0tsVmHaTUU/aNQcu9A4i4Ior6LEgXbAWKxt034lRGYuk5I7NC+Yk4Kk/MLpJ3mR/wwMAyp9OVCLxdMEBV81u1VvN5lUd9ohzudyEtNJoEQAmpb0e+oajJrjpts61Bkr1+r1pRbsE/c6zU7luAwDc0P4N1g1u0thVLJkxJXRWLpq+TKb+zosl0d51d3zppZfk05/+tGzbtk22bt0qn/rUp+T555+3n3Xmj/7oj2TdunXyxBNP2CMoV7FEVr+/irIzrBOxF/acl+5Wn+tO0U4lkjnpbPHR8AQAKkg0kTaPhWzU6Qbb7mMjsmZxiznG40Yul5f6ulpK0QDAFEbHUxKJZ4pSu/XNIyOm9urN1zjPbtXrtpYi8HLdBgA4FE9mpLZm8tjRib5x87hqmoCrJjDWeWovZche8ZU0IPrZz35Wdu3aJZs3b5brr7/e/Prhhx+Wb3zjG/arCvPcc885/r2YfUOhhDQ0FCc4efhMyHQavX2Osls14JubyNPwBAAqzIiDxo1Hz4VNvfDrVrtvlpVM5aWjlVI0ADAZzUjtG4lK0Oe+Vqpulu04OChLuoOmBJlT5rrd4jU1XAEAcCIUS0lDw+T3kWPnxsXXWCcLp6nfms7kpfWy09WXImuDg4Py+c9/XpqamuQ73/mOPPbYY/LlL39Zvva1r0kwGJQvfOELMjAwYL96ZkKhkPyn//Sf7M9Q7lLpnEmTnqpeRSE02Pn87n7TJXTjcuedRt3Qf5+WQGNR/n0AALNDr93xVOGNG/U4qna3XrOkxR5xTjfrml1myQJANcpbc/yzgzFzCqAYJ+K0UZaWH9u2wXl2q9LrttvTDQCA+Suby5umvfWed69BNL51rG9cVixsnvbel81NSNA3ScD1q1/9qqTTafnMZz4ja9eutUfFZLpqhmsqlSo4U/WP//iPTdB1y5Yt9gjKWcg0yypOduuJ8xHpG47JbZsWzFnhej2apDvdAIDKEY6nCs5QiiUycvhMWK5d1eG6hEwmmzOlBLwNHEsFgHcaDifMplixju6/emDANBdZv7TNHimc1v3WazZlYAAATiWse1uNqcD6boOhhDlJt6r36okdl5/Su7QquVin9Z577jGPl7v33nvNo5YHmKnvf//78sMf/lB+67d+S9asWWOPolzpcZ4RawLl9RYn4PrC7vPmmNGW1e4blzihC+bGeo/JdgIAVAbdPdZyAnpcpxC7j4+YrKvilBPISUczm3UA8E66GO0fiVtz/OLMrwdG43LyfERuWt/lKkHDXLdJsgAAuKANe+vqJr8XaTkBNW39VtMDouaKU3omuqYLnKNHj1o3ulpZuXKleeJyy5cvN8/pa/S1V6OlBx555BGT2fprv/Zr9ijKWTSZkazp6O8+4HqqPyInrY9bN/WY4vVzIW5NvBZ2+Ki/BwAVRBfzmqlUV8C9Q+clWk6gtzMg3W0+e9QZ/Vo6y+FYKgBcSRuBnB2KmlJdxTq99tM3zpmvt3Vtlz3ijF65m4pQTxYAMD/pGiAUTUvjFP2Mjp0LS1er15zImEoqk7eev7J/kPlq4XDYlBNobW2VhoZ3fwGPxyNtbW2SSCQkFovZo1P7gz/4A1OC4M/+7M+sRVNhWSqYGyOhZFFqnepC+fsvnZQW6xvxBpeTJ6e0kH/QW8+CGQAqjE50PFPsLE9Fy9dog8br1rjPbk1lcubeUe+Zm81CAChHuhA9PxKz5tg5azFanLWdLl6Png3LHVsWuioFkLau2wFr3l9o3W8AAC7SZlfZfH7SBEQ9PX16ICorF01fTiCXm7DWEVdu/pmvpoFU5fNNnRni9V44pnG1gKs22dLyBL/7u787abYsyo8uMCOJtDVRcb/AfPbNPhkZT8mHb182JxMfnRCm03nTOY7sVgCoHFraZnQ8WXDt1DePjJjTFBtXOK//d1EmM8GxVAB4By31MhpOFa2UgF7vf7LjjGmue/M17pplJa15f0fzlRlFAAAUIp7KSM3E5PGjU/1RyVn3rVW9U5cTuGDiXeuYmgmLlgDYvn279Pb2ytNPP20/daW77rpL+vr6TB3Xnp4ee/RKp0+flvvuu082btwof//3f38p4KUZr9/+9rflT//0T+X+++83Yygf/cNROTccMx393Tg9EJG/+PobcvOGBfLAvevs0dkVjaelxZq8rbjK7gMAoLyEoyk5eiYkLcGZ34s0s+nzj70sm1Z1yoM/t94edUYDANFkWras7iqopAEAVLNwNCmHT1vXZmudUKxSAi/t7pNvPX1EPvvhDbLZuuY6dfG6rV9jrsqYAQAq39EzY6Ye+GQNIb/77FFz3/rC/+d2afBMnlSoJ71zExOyaeWVPYxMwDUSiciNN94onZ2d8uKLL9pPXem2226TkZER2bFjhzQ3vzuym8vl5MEHH5RDhw7JP//zP8uSJUvsZ9wHXEdGouaGOpmuriYZGorYn6FQ2mTk0Kkxk93qZoGpBYIf+/4BiSez8m8/unHKzqVtrQEZC129LIUT+j0SS2Zk7ZK2opRHAD9fF+kCo6MjaH9WvbjWVo9KfL9O9Y+bGq6FdL7efWxE/vH5E/Kpn1srKxZebdd5enr/ag02yKLO2f9Z5+frgvlyrVVcb6tDtb9XWqZLj/1rx2VPkUqt6Nf8yyf2SmeLV37lA+tcnUjTeX9b0GtdtwP2yPT42Xobc1tUAn5mq1c5vbd6jdh3ctSc4pjsnvTX391rarf+6/evtUfeTe9H2nR3QfuV9yNz5wwGg+L3+2VsbEyy2ax54nI6ps81NjZOGmxVTz75pOzatcu6cHfIF7/4Rfm93/u9Sx+vvfaaec03v/lN8/lPfvIT8znmXiyRkUyusAYlk3lhT78MjiXkQ7cuK2ixXEyxRFa6Wn0EWwGgwuiu8HgsU3BtwF2Hh8yR1OULmuwR57LWvbCQ7FoAqGZ6TdRjlB5PTdGCreqF3f1mg+v9Ny1xXf4rlxNzDwAAwCndCJyYkEnvSeFYWobDSVm1aPrEjnxuQoK+d/cQMndP/cKrV682WaonT540T1zuxIkTks/nZe3aqSO68XjcPJ45c0a+973vXfGhpQaUBmT1c82CRXkYCiVcF78fGIvL82+dl00r2mXd0lZ7dHZphm1tXY10trjrUA0AmH3RRNp0mS5k8a31Xk8NROW61R1FWLTnzXFUN41bgFJKpXP2r4DS0xNwZwejJuhaaF3t6YxFUvLq/gHZsqpjxlmpU9EmJpp5qx8AADgVTWZkkl5ZxvFzYfO4qnfqkpXaR8hajEx6P7r0Ze+44w7z+NRTT5nHy10cu/POO83jZLRUgAZSJ/v4+Mc/bl6jJQX089/+7d82n2Nu6dHNaCLjKiNU06+/98JJ8TbWyQe2vV1GYrbFkjlZ2O6nfhMAVCDdOS500bzryLDObWTL6k57xLlkKm+Ot9a6DNwCpaAT+XPDHIvF7Bkci8t4PCOBIjXJuuip18+ao+x3be21R5xLpHLS1ep1veEGAJjfQpH0lDGxY33j0uSvN/ebqehJPX9j3aSxqEsjGjDVkgGPPfaY7N271x4V2bNnj3zpS18Sr9crn/zkJ+1RMQ20jh07JqOjo/YIKo1mB3nq3E1SXtk/IH0jcfn5bUvF7623R2eX7nDrD0grR0EBoOJo5l4ylZWGAjb/NPD01tERWd3bYmoquZWTfFG+DlAqOplPZchyRelpMsbAaMJaYBY32Hp6ICIHTo3JbZsWuL7e6iaEbpA1+bluAwCc07lV0vqon6R0jq43jveNy8pFzdNu7mUyE1M2oL/0VRcvXiyf+9znJBqNygMPPCAPP/ywPPTQQ/KJT3xCYrGYPPLII6Y+60X62g9+8IPy+OOP2yOoJDpxHx1PuTo+qYvkF3afl9WLW2TD8jZ7dPbFUzlZ2Ok3O+YAgMoSjqcKzlA6ei5sggLXr3Gf3WqOpdZ7inpsFig2E3BNv7vPAlBM+n2mgVG/d/LGIU5pgPSpnWdNltCtG3vsUec0u1UTLTjZBgBwQ3sa1UxxgKhvJCbJdE5WLZq6nIDKT+SnTD684i714IMPyqOPPipbtmyRnTt3mkzXrVu3yle+8hW577777FehGoSjKfPoZjL12sFB8w343usWFXVSVggN+gatb+4m39xk1wIAnNOd4+FQUnyNhZcTCHg9smbJ9BOgmdCFu5YTAMqZVhOIJQm4onRM6YqhqPn1ZJk+bpwejMrZwZi859qFBZ1mmIrWlm1v5mQbAMCdsUhSGhsmv+cdOzduHlcumro573T1W9W7vvJdd91lsla1wdWrr74qf/d3fye33nqr/ezb/v7v/37G9Vi/8IUvmNdq2QLMPV3gDoYS4vc6n/Bo6vUr+/plzeIW10Xv3dCA74IO/5wFfAEAzkXiaclm81JXQJaSZrYeOROWzas6pG6qCvczpPdDvX9QTgCVIGJ97wOlMjKelHHrmqzZrcX20p5+8Td65Lo1b5+WdErvGRq0pckhAMCNdCZnNrOn2gjUcgKLOvzTls5MZ/Im+W+q09bF3b5ERdDFqu4MF7LAfafXDw6arKA7tiy0R2afNv3S40SBOaodCwBwZyiUME0XC7H72IjpoF2McgKJdFY6mr0cS0XZ033ljDWp1/kbUGw6p+4bjkmwBCfGBscScuRsWG7e0C31HvfZrReaZflItgAAuBJLZmSqO0nSWiOcHYrKyt7pT9NpwLUlOHXiBiuMeUg7jxbaDfpyWu/u5X0Dpnjw4q6gPTq7NHVb60x1t/nsEQBAJYkns6YGdyHHS/Xav+vwsCzpDkqnteB2K5ebkLYmjqWiMmiJMc3GAIpJg/inB6LSaK0NStEP4aW9/aZEwY3ruu0R5/QeoP80+0m2AAC4oz2N9N43mRPnI9Y9R2RVb7M9MrXpTlwQcJ1nnCxw32nnoSHzdbbPaXZrztRu4jgRAFSmkfGEeOoKW9yfGYyaY6/FyG7V0jh6QoL7CCqFxsK0lBJQTP2jMZNM0ViE2qrvpD0j9h4fla3WNbsYpQr0+19PtxUjUxYAMH9p8l48mZmyZvmxc2FpqK+VxV1Tl8/U0mR11lpmuvsnAdd5xskC93L6jfnS3gFZvrBJlvZMXTy4lHR3O5fPS1er3x4BAFQSXdyPRVIFN8t688iwNFgTow3L2+wR57TpYhenJFBBPJ4a000XKJZQJCkj4ZQEfKXZeHpl34B5vGVjj3l0K5OdkPZmmhwCANyJJdLm5NBk5Wk03nT0bFhWLGyetl+EJm80+xumLXFDwHUe0QVuKFr4Avdyu44MmRqw2zfPXXZrLJGVrhZfSXbiAQClp/eiWmtyUkgNPp3U7Ds5JhtXtLs6paF0085TWyNBaoCjgmgWBo2zUCy66XRmUOu2ekpSD1VPw71xZFg2rWyXlqD70i1a+qDeU1OSpl4AgPllLJKespzAwFhCxuMZWbuk1R6ZnCYjXq3xLgHXeWTMWuBay1vHkyrtCvrinn5Z2hOUZQvmJrtV07ZVRwtZSQBQifQ6PmRNZHzewoKm+06MmolNUZplJXPS2eYrSb1CoFQ0yyKXy5ufA8ANvQ6fHoyYAKabJrrT2XFw0Hyv3rZpgT3ijl63tVmWbtYBAOCUbuBpEqGempvMkTMh87hm8fQNszSudrXeSARc5wnN5tEFrptd4TePDksknpHtWxaVZCd8JvQoXU+7f8paGwCA8haJp62JzsS0R3TeSY/2aP3wrlav9E5TS2kmTNMV66M1QLMsVCbN9gbc6B+NSzKVFW+JaljrqbodBwbNYrUYDW7Nddv6p+UqmUQAAFxNLJkVqZm8nIA6fCYsizoDEvRNfRLuwqmL2queuiNqNU+EY2nJ5SccZ/NoRsULe/rNQnfFwrnJbtUMW92Fp6M0AFSuoVDCWuQXlt16digm50fictP6btcbftp0pTnQ6LosATAX9PtfA2WAU+OxlLkOB0vY6f/NIyMSt75Pb7u2ONmtNMsCABSL1i/XEx6T0czXc8MxWbtk+uzWdMa6L81gE5CA6zyQn5iQwdG4+F3sYr9+aMiaoKXlzuvmMLs1mZXezoB4SnT0CQBQWlrTL57KFRzs1KOpWrd786oOe8Q5PeLa2UrTFVSm+vpasxgAnNDsaK3bGvCWpm6r0nIFL+/rN52dl3YH7VF39Lrd0cJ1GwDgjmaman3WqfoBabMstWbx9PVb9bRe0E/AFRY9hp+2Jioeh8fwk+msPPfWeVm+sElWLWq2R2dXPJkxO9tXK0oMAChfI+MJ8dQVtsiPWpOi/SfH5Lo1Ha6zUvWkhH4NNxuQwFyqr6uVmDUn0iPWQCE0AePsYFS0movTNcFMvLp/QELRtLxn88KiBHU12NpY7+G6DQBwTZM/xJpCTXV/OnI2LE3+elnQPn05HO2NdLX6rYqA6zwwOJaYsgPbTLy0d0ASqazcc8PiOclu1fqz1v9kYYd/Tv58AIB7WtNvLJISX4HlBHYeHjIZU1pOwC094trd6uNegoqlpaGsHwcThAJmSgP0/SNxE6z3lTBwGbKu8T97s88cxbxas5GZ0jWI1u/mug0AcCsUTU1ZTkDLaB47F5a1i1unvefomkab/87k5DUB1yqnEXw9ij9VyvTVaHOTV/YNyMblbaZw8FyIxbOy0PqzqbcHAJVrzJrgaHfpQhbNOvHRZlmre5ulvdndcVIN2uqfz0kJVLwJGmehMFqzddj60KydUtGg7g9fPW1+/fPblhYlQKpfU78O120AgFuayKe9jaZKRjw5EDEnw9dcpX5rKpOf8X2JgGuVGw4npozgz8Szb/aZI0h3be21R2aXljPwe+tplAUAFUyDncNjCbMbXIgDp0KmXuVN1/TYI84lUjnpbPFSBxwVT4+Ea9YfMBOjkaRpOqhNskqZJaqlX7T23V3X90pLsDjzdv0+72hu5LoNAHBNkxEvbuRN5siZsCl9drUm8Xr6Ouid2QYmd68qptkPmjI9k9oSk9Gd8F1HhuXGdV2uM4uc0AV6OpOX3q6AyUoCAFSm8XhactbkpE4jRQV47eCAtDc1mgxXN3RypbvabXNwLwOKrd6jjbMIuOLqxmMpU7c16PeYchSlkkxl5cevnTHlv26+xn35l4uyOZG2Jq7bAAD3LpQTmHwtomuFw2dCsmJhs/WaqeNnFwK2It6GmZXnIeBaxcbGk2Zx63Q3+6dvnDPfkHdsWWiPzC5t9tXd5itprSkAQGnpxESPszY2FDblOD8Sk7ODMblxfbfrrKxkOmcaLzotrwOUE52baS1OPYEETEUzeU4NREyzqUI3uwqlawb9nvzwbcuKFthNZ3Km5jfrAACAW9lc3jR0nCoZcTicNM9frf64JjU2++tnfK8j4Fql9BtKv2kKbU5y0WlrgnbodEhu27RAAjNMly4mnWTVWwvjrtbpu8MBAMqbHgnVj0LrcO84MGgCS9et6bBHnNPTElpOAKgGFzcgMtb3NTCZVDonJ/rHzSaTZ4psnmI5Mxg1tbZvvqZHFnYUr99DMp2XLq7bAIAi0L5Guk89VRKHZreqtUtazeNUdE3RWsDJCwKuVUrTpTXvwckus2Yj/XTnOQn66uWWDe7r5hVK/3yttbe4K1jyHXkAQGnp5t9Ux3emEk9mZM/xUdmyqmPGR3amoht4Aa/H1AMHqoXOlWichclo92QNtmrZ01I3nNXGht9/6aRpHnLX9YvsUfcuNDkUaaJZFgCgCEat9ch0p+2OnA3LgnbfVZthabxWT47MFNGsKqSTlMGxhPWN4GySpdF93a2+87pFJZ+oTSYaz5rMVg34AgAql9Na4m8cHpacdS+7qQi1ALWcQHe73/4MqA7a1EE3JoDL6Qm3k/0RsxZwu1k1Ey/s6ZehUFJ+/palRV0zaDmEzlYviRcAANc0+SKSSE9ZWkxP4mn8a83iq2W35kywtZBEEu5iVShqTcB1wlXnoKOn7lQ/ueOsOXp5/ZpOe3T26K68x1NjarcCACrbWCQpdTWF1RLXQIEeT12+sMl1WRm9F9Zb90I28FBttKGDzveAi/R6d6o/YkpN+L2lD7Zqfdjn3uqTTSvbZd1VjmAWQrO39dhnB00OAQBFoM17a6x/pnL0XNjcd9YsuUr91nRh5QRUVQZctYmA3qznq6ExbU7ibJf5tYODMhpJyb03LSlpN9PJ6HsWT+VkSXeTeBwEiwEA5SOXz8twKCk+b2H3owOnxiQcS8u2ImS3JpJZk91a67LpFlBuNMNVv791gwLQ74MzgxGTpeP3lT7Yqn/Od589bpoRfuiWZfZoccSTOZPdOl2XaAAAZkJjTCPh1LS9jY6cCZvyY72dV6tDPiHBAkuUVWVUaziUkEhifu766wRIu4Q66cSsv++5N8/Lqt7mq3ZnK4VYIitdLZQSAIBqMB5Lmw3QQjbvdFL08r5+aW9uvGrR+qvRAIRm1rZQAxBVyGSNWx/UcYVeZ88ORSUaz0jQX/o5tF6n//mFkxJNZuUX71zpOMljMvq18/k82a0AgKLQ0mI6V5qqgaQmiGiGq8a/pjuRZ07N1dcVfM+ryoCr/scIR1P2Z/PLWCQldQ4zU5/d1SfpbE7ef9MSe2T2aCkB/XtTSgAAKp8umgfHkuIroKi8Oj0Ylb7huGnYWEgZgslo80Utj8OJCVStiQsb7Zi/dGOpbzgmoWh61hpM7Tg4JIfOhOSeG3pl0VWzgQqTSOako8U3Jz0kAADVR+OC0y0FzgzGTFB2zVUSPfQ17U2N9mczV7WrEJ14zLdjVhpoHhkvfIGrtMnWzsNDcuO6btc18wqlC3NTSqCHUgIAUA1iyaykMtmCisqrV/YOmHvYltUd9ogzel/RHes2sqRQxbTbrs53Mf9cnPMfPD1mki2a/KUvI6D6R+Ly5I4zJhNo24Yee7Q49LqdJbsVAFAkegJk9CrxMW0Yr6fxVi5qtkcmp7HFoK/wjc2qjW5pBDo+z3b99fimTlYKrb2qv+fHr502ZQjuvG6RPTp7KCUAANVlcCwuDfWFTTE0eKBZUzeu73Jdu0+zW7W2oJPyOkCl0A2NaOJCo1TMD5lsXgZDcTl4akz6hqLWNa5Wmvz1rk8EzIR2Z/7Os8dMQ6773rO86H+mZmu3NVnX7SKWKAAAzF/xZFay+anjYxoH239i1ARbp1szaLDVY30N7zR1YKdStQFX/W+qAcj5Qr9ZhrQ5iYPs1iNnw3LifMQEW2ejq+nldPKm9TQoJQAA1SGezEgknhFvQ2H3k1f3DZjSMjetd9csy2RJ5fKzfloDmG0XAl4TlBWYBy7M8+Ny6PSYDI4mzHxdSwjUzdLJMP3zf/DyKdNY92PbV1p/fnGTJC5ctye4bgMAikazW6c7bXeyPyLj1ppl88rpT9ZpMmdrU6OjJrxVG3D1NtRJKJoyN/D5QLN5nRzfzFmLUj0apMd3NKtoNulOgX7zLu2mlAAAVIuB0YTJuiqEBmnfPDosm1d1uD7toPeVlkCjow1IoNLo/CkSp6xANdMNJK1vfX44bgKt2hir0NNsbj2zq0/2HB+V7VsWyfIFTfZo8ZjrdrCx4I06AAAmo/fOcCxt4oJT2XNsxJzIW7d0+vqtGjNrttYWTlRtlEsnIpo+rDfw+WA4NH30fipa+H5kPCXvv3mx1NXO7rdDJJExxfZnO6sWAFAaenRnPGFNbgoMdr5+aMhkN92y0X1NQD1yS5YU5osLCQYXSkqh+iTTWTl2blwi1qKxOdgw64FW9cq+fnlh93m5fk2nbN+y0B4trkwmL91ctwEARRKNX5gbTVX+Rpu27z81JhuWtU0bRzPzK+tr+ByUE1BVG3BVdVIjEWvhV+30WP54LDVt9H4yWvfr2Tf7TM2K1b0t9ujsiCey0hpopDA+AFQRrS3YUODmXzablx0HBq37ULPrQGkylZUmXwMbeZg35luCwXyic/ujZ8MyIXmT1ToX3jo6LD/ZcVausRakH7p12ZQLVze0JIYGkzmVAAAoFk0qnC4+duh0WNKZvFy7avpyAqlMTpqte7DT5MSqDrhq99ax8eoPuIasCZlOgAqdBD31+lnJ5PLygW1LSzKBmoruJoj1x2l262z+uQCA0tFF83g0XfCiec/xEYkls3LLxgX2iHMpa+LU006WFOYXnczHkpkLn6DiacmtgbGY6a+gDTrm6pj9odMh+ecXT8qKhU3yse0rSpZdm8lOkN0KACgaDZLGrHVJwzSNsHT9oYHUq5XJ0aBsa5PzJMGqDrhqM6Z0JiupKt7110nZ8FhCfN7CsltPDURk97ERuXVjj3S2zF6Wqf5946mcLLO+sZ2UQAAAlKdB615UX2DtVj2m8/K+Aelp85lFvRt6r9du3cVu5gKUO00wCEdT9meoZHr6TJvZai1svZ7NVY8DbSTy7Z8dk4UdAfnl960u2d9Dr9sBr4frNgCgaLQMz3R3rZh1rz16LiybVnZcNQFQn/a7OIExDyJeNVW966/HjXJ5KSjFOZfPy7+8fFpaAg0lq8U0lfF4ypq8+a3JFRMrAKgWmt2qpy0KLW2jgYXhcFJu3bTA9YkH3c3ubvPbnwHzR72nzjRP1frFqEx6+uvMQESOWQvAmpoJabbm6HNRr1X1j8bl6z89Im1NjfLJe9ZMmyHkVtK6bve0c90GABRHfmJChsIJc0JkKntPjIqWZtVmvdPR0p0abHWTKFj1AVdTViBSnbv+mi16fiRecAHf1/YPymAoIR/YtsRM0meLqdFkTSA7Wzg2BADVZMi6p9TX1RYUNNXs1mfeOCetwQbZuLzNHnVGg606IdJMKWA+mpioMfMsVBZdGA5bC0M9vh+JZ6x5cn1JA5xXE4mn5etPHRGv9Xf41+9fW9J62LqQ9TVw3QYAFI+eFNEN6OlOZuw5NiIL2n3S3TZ9XCqVdldOQFV9wFUnLfHUhf/o1SYUTUkmN2FKJ8zUeCxtGmWtWdwia5e02qOlp1m1OevvunRBs9RStxUAqoZ20db7UaGbf3uOj8rAWELet7VX6lweV9WGQQs6qAuO+aveUyNha46HyqHXzuPnxqVvOG5Kg/l9njm9hmmW7Td+elQS1vX0gbvXmCSJUtLrtpaT4boNACiWIWtt0TjNibvhUEL6RuJXbZZ1wYQEXZ7MrvqAq9J0YT1qVU00gKlHfgIF1m79yY4zZjd9thtlRRNZ0yRrrgr/AwBKQ7NbPXWFNW7MZvPy9BvnTImZjSva7VFnLh73IUsK81ljfZ0pM6VzPJQ3k9VqXTePnAlJNpczWa1Oux8Xi544+MfnT5pF6P3bV8oC69pcSnoP0COaTSUO6gIA5o94Mmsa8eqcaCq7j49aaxaRTVdZf+h9qqHeM23wdibmRcC1ob5WQpGk/Vl10DIJ2Vy+oKygY31h2X9yTG6/dqGpyzRb9Bu/2d8wq38mAKD09AjzqHU/8hVYTP61g4PmxMU9Ny52vfmnTVe0BiBZUpjPtN6nlppKpqq3UWw10OvVib5xE9gM+OrF66IRRzE9s6tPDpwak3uta/K6paU/AaeJMD1tfk69AQCK5v/f3ntHR1adab+vcirlLLW61d3qDDQ00GBytg02MIw9YDBexvYEM7a/meVZa+w/Zvna63rW9VrD3PlsPA7g8XfHCTM2GHAiQ5NjRzqrg9TKWRUV++7nPackdbdaqpJOlepUPT+oPlWnSlJV7X32fvez39A3bDmBnA1sLiKdwKraIinMn3vDD+kEyooWr1+lhOCqu/6BMfUKTQYgtKJ6aUFe5EYafubPb7ao6Hn5OTX22dgzYf4uFgD1FQz1JISQZAJGS0efX3Iyo8vdik24V3Z2SNOyYllpDJ7FoF5SZo735LEQIyG4Dn0hphVIRODV2jcUkoMnBmR03PJqXaqiWKezyyw+X93VIVvWVsilm6rts7ED67EM89mLPfRuJYQQ4gyIeBtUJ5Cze6S2dPs0/VIk6QQwbzuxvkgJwRUGKBaGwSTZ9e/3hrQDRBN+BEOqb3hEPnrJ8qhyvi4WP1IJVBYsaQEAQgghzoOk9F5zi9ZD69XdHSo43HDhMvvMwkGuQeQApJcUISgUm2EWGxRcEw3kaoVXa1uPTwpys6KOCIglLV1eeeq1Y9JYWygfvTQ+6cYCIYzb+UueRoEQQkjygHoSmMPmmsfg3Yp0NuvnieSAsyJy4+cuMp0ASJmZDl/sQBKkFUDxr254t0aRq657IGgWuJ1yzqoy9SiKF4EQqq1mS6mHqQQIISSZQORCW69f8qMslIV0OO/s65bNTRXzVgadD/WSMjZVrAu7EOIWYOtC3EPxI7L0YJzsHgxorla0SZEnO2G8WgE8bn/9QrOUmPf1yWtWx0UAxXeCb6CEacZInIBwQghJbrAmQE2J/Dk0MkTFfXB0QDasKJ3XGdBKJ5DryCZkygiuUKex0IMh6maQlwJEarDBsMHONdIqfHhrg3029lipBEQLZcVjt5wQQkj8GPCNyOgYdn+jE1xf3N6mc8I159fZZxYOvKSq6CVFyBkEmMd1yUF+a9RO6OxDCrDEydUaxh8ck18+d8iMxyKfumFN3Lxug2bcrijJlcwoalAQshgQjUMISW5QF2Ly5Nwa2cETgzIyNiHnrp6/WO/EyZPz5niNlJSZ7bDAw+SO3KduBbvjvYOhOZX703lnf7d6IX1ka4OGMcUD7DBgcltW5WEqAUIISTLgLdKpBV+iG9/bzVy050i/5ghcrFcqvaQImR0Uik2GiC63Ahu4s8+vXq0YpxIpV2sY5Ln71fOHxBsYk09d36RePPEA38ek+a+sMD5/jxAw5Bux7xFCkhGkDu0eCM0b/v/ugR4pzM+SlTVz14+A42CWmbedSCcAUmp7EQl0B30h8Yfct9OFjtQ1EDQLzLSIDTckDX7h/TZpqi/SdALxAB3UHxiXhupCKWEqAUIISTp6B4M6J0XjWYrXP/feCcnPyXSkcKN6SRXTS4qkBjube+VY57D9aG4Q0YSCEEjrROKLNzAqB1sHpWcoJIUFWZpTN9GA6PnYtiPS0ReQv7x6ldRXeuxnYo8/NC6VJXl0xiBxxT8yoV5thJDkBHPLyNi4plU6G3BAPNbhlUs2Vs+rpYVGJ6S0KMexKO2UWqngS8vNzpQO84Vj8ecmkJOi3xhw+RF6FOHz/f6N4+oBdMuHVjjWYeYCXk/o8MtrCrl7TQghSciIMUK6zXxUkBdd+OnB1iE1dK46v27RIgTmt8mTVm4lQlKBN/Z0yXPvnojIdoW9l5OVroKa22xdt4IItJYurxztGJbMjDT1oImH3R0t6A9/fqtFx+OPbF0u6+YpGuIk+I7w3UBwJSSeQOzAZgghJDnpGQhqdM9cvL67Uz1WL1xbaZ85OxOITsl3znEw5VxDsNALhMY1z4Nb6B8OqeHsicKA29XcJ0fah+W6C5dJcRw8TZGEGN9rYw09WwlJFeApg9BEkjp09gfUqzQaMQGRD8++26oeqReuq7DPLhzkRkQqAXpJkVTh3FVlGv7dbmzBSIBzgS80Jl7mLowpmAN7BgIqYPpM+0BojTavdTx5fU+nhlR+6JxquXhDlX02PiDn9rJKD3Nuk7iTk51u1tJMK0BIMoL6TL7gqNo9ZwMFIvcdH5CL1lfO6/SBtEBY5+RGWRR4LlJy1svLzTRGq18NpUQHeWdOdPvUiIs0lQAS4T/zTqssqyqQi03HijXYtQ6azr6qrliKCii2EpIq4LrvMotNkhogN/egmZOiySMOsMDHYufGi5c5stgenzgpFcX0kiKpw/lrKgQm4L5jA/aZ+ck3iwXkTXaDres2Jk+elEFvSA60DKhna252uuTnZSakVyuAZ+tL29vk+ffaZFNjqdxw4TL7mfiA9BZwxnCqAAkh0QC7IzQ27vrC2YSQM+kdCkp6xtxz7xsfdJpxIE22bqi2z5wdpBMoK8wxNpdz83lKCq7I7zA2flKrLCcyWNweN4YcQjejSbgPsRXVoz9+WWPMjT94LqFjQmz15MWnKBchJHHwBce5oE8BIDB09Pk1F3o0wBv15R3tZo4okqb6YvvswgmZ34dFe7wqahOSCKDoaUOVR/YfH4g4TQA8LWELYpOEOAO+e4QmH2odkpZun64nigtyJCOBc0nDKeI3Lx2RbTs7ZHNTudx25cq4CsOwDyYmRGrL8+0zhMSfDEmXYaYVICSpgFbWNzSi9SHOBubsnYf75II1FRFpVZivChdZ2Pd0UjauoyA3Q6ssI+9oIoJF6rGOYV1URmPIYad995F+ueycmpjnSVLDMzguDZUeXQwQQlIPJCnHpgtJbiDaBEPjUYfxb9vRrsUqbrq4wZFF/uj4pFSV0ruVpB5Ny0qk3zsi3QNB+8z8wNbt6E9cW9ctYMMJYk1z25AcMbZ5WtpJKTILssw5CnQkAkif9n/+dEBDKW+8aJncenlj3AsNYlO2tiKfKWDIkpKTk65hxZFuWBFCEhvYNdC9EHU31/rirb3dOod/KIKCvdggxLTutFNHygquEDHxpcINOdFAyAMMOiT/nava2ulgEnn67VZNP3D5uYuvAj0fgeCElBfmxCVHLCEkMRkdPymBEeYJTGZg1GCDEiGz0dBrFjfv7O+RLWsqHRFJMTdic2+unWxCkpWm+iKzqBAVzyIlbOuiFgCJHox9+O6QOgBOEFi0FRdku0I8REXmh3+/T0Wmu65v0sVmvFMeIMc7ipSwkC5ZarDRMDZxkg4ChCQJnf1WyqS5tDJExb17oFs2riiV0sL59SqsM0rMfOVkOgGQsoIrQKg+qpolUk4XeAIdbR+WzPS0qA26HYf7tLjWDRcti7kxCCMKqfhqKwribsARQhIHpM0Z9lNwTWawMTlhFirRekY9926rZGamyTUX1NlnFg42FEfGJjUslXMOSUXyc7NkeZUnKsEVFORmqlcsQstJZMDGxWIOKRxO9Pgky4x98Gh1i5cm+sj/96f9ZsxOk8/dskHWNpTYz8QPjNnBkQmpryyIKi0aIbEC9uqQnylWCHE7w+Y6Rm0IaHlzgRoSSK102bm19pm5gZmEud5pUlpwhQGQlZUuxzt9CRFuBQPvqIYqoaJidEbdyOiEvPDeCS2Udc7KMvtsbFAjyvy95TWFcQ9NIoQkFtmZ6eIPjWlVR5J8YBMQG5PzGTWnc6R9WCt3X3lerfnZxaecwcK9pCBHRSdCUpUNjaXSMxiS3sHIo7Ng62KTIppUBKkK0nm1dnvVo7XXfM8IVXRD6oCZ7DzcK795qVlqyvLl8x/bsGQpWPzBcakozmXKMZIwoOo4RBp4qhNC3MnY+KSc6PFrtNtcDhjj5nVv7e3SGhKR5BCHtyxkrVhE0Z1hQbz++uvymc98Ri655BLZsmWL3HvvvfLKK6/Yz0bG9u3b5W//9m9l69atct5558ktt9wi3//+9yUUSryQptzsTN31RyXXpczrgs5ztMOr7yF3AQ29bVe7+EPj8pGty2Pu/eMNjEm1MeBoRBFCAIZObPqQ5KOzPyAZGWlReSjBaHn2nVYp8WTLJRFUBJ0PzIvYFK0uY+5WktqsX16qx2i9XPNzMzTFB4pHkFOB+ILvBflZD50YVBvXk5+lN7d5Zr6zv1ueePWYNNYUyqdvWrtkdjoiB1G0rbqMhbJI4pCRnq7FnrGxQghxJ5190Oxk3o3Qnc19qo1FmmYTDiYlnpyYzPunvNPHHntM7rvvPhVMIZRecMEFev8LX/iC/PrXv7ZfNTevvvqq3HPPPfLSSy9JY2OjXHHFFTI8PCzf/e535a677hKfz2e/MnGA586Ad0T6lijHFRaSxzqHzSJ1ckFJevG+kRD4/KZyqasosM/GBuTCyM/JkqoSGlGEEAukFwmYSY0kF/BcRrGsaOelN/d2SddAUNPbOOEZFgxNSHlRrm6QEpLKwNsSIdr7jg/aZyIDG/FILQBbM2CuayIalTHgDcnB1kF1eIAtju93vgIcicpruzvkT2+2yNqGYvnU9WuWLP0BBK2xsZOyosbDKDiScGADecjHjSdC3MiQWZOgeCg2kecCjh+v7+mUuop83YCMBHjExqou0dRM2N3dLd/4xjeksLBQfvvb38pDDz0kP/nJT+SXv/yleDwe+fa3vy1dXV32q2dnZGREvvrVr6pw+OCDD8qjjz4q//mf/ynPPvusXHvttbJv3z55+OGH7VcnDjCsUGiqvccfd0MUBt7xTq/ml8gzRt5CgCcRcr5et2WZfSY2qBE1flIaqjyu2/UnhMSOnKx05sVKMuD1hcgPFDyJRnxA2PKL77fJuuUlsmGF5Y23GGA0jRuborKE3q2EAFxX8DyHo0A0YPMD1zPExVT28EJUW/dgQPOztnb7JMPYs0UFWVGn8koUEAGAMff599pk08oy+eS1q5csBQLeiy84Lg3VHm6QkYQE/RIbLbAtCCHuAXP3CbMugaPkfOsSRAHBRrr8nNqI1jAYD6Btxaoo79SM/POf/1xGR0fls5/9rKxdu9Y+K+rpCg9XiKnzebm+/PLLMjg4KNddd53ceOON9lkzuOXmyv3336/3o01PEC/wJSO3y7FOrzZoPAiLrTB8o82PF+Zw25CVJ29zrYY/xQp0RBhRy4wR5VajlBASG+DFEhiZ0DGNJAfDvhGdm3Ki8JLCptzj246oqPOxy1Y44iUGz2nkIHRLsRpCYk14IyPatAIAYd4oZId6AQifSyUwnrX1+PR76+4Pqs0Pj9a5KhwnOvDI+fNbLfLKrg65YE2F/MWVKzVseqlAOgZsjiEsk5BEBOt9mKqBFN50IsRtwAmkrccvaUglME/kBDSrl3e0aw5xOH9EAupElJvXx8qhcOodh4XQG264QY8zCYun27Zt0+PZuOmmmzSVwL/8y7/YZ6bx+/16zMxM3B3P8IIOO96xTqg9U2xdqFCKxe0zb7dKaWGOXLJx8XnyzgY6LoyoZVUeKaURRQg5DRXWzJgZYh7XpADzU3tfQENro+Hlne2aSuBjlzU6kjsQIb/oWxXF9G4lJAxsPhREWojgCrCJgjUFRNd4ORgsFbBfh/3Izzqo+VkRiYGINtjdSylMOsEJs1b58VN75Z39PXLppmrd5FrK6DN1HjHjPvomIYlMVmaaDEYZIUAIWTq6+gMyHBiT/AgcFHc192nO+mu31Ec8J06YNWypJ9d+5DxqbSAE5PDhw+ZNpcuqVav0iZkgFyuew2vw2rmora3V20x6enrk3/7t3/T+rbfeqsdY0TUQkCdfO2aMyIV5WmGBCU/O1i5fzIrAhMXW0MjEorxSt+3s0A714a0NMcuThPaG2FpfUaA59AghZDYwqfmDzA2YDPQMBlWoiGZewUbla7s75fw1FRHvKM8HqlyjQCPzABJyKhtWlKi3B8TEhYDirLjGEdWVjJEJ8N610gb0y7GOYZkwn9XKz5rliOf9UgKR/Jl3WuW//rhfRs1a5+4b18hNFzcs6efCmmvSdCOmHCNuAFE4CDdmsVdCEp9+b0jTlRXmzy+2IuoD3q3I3bo+wrUIxoFCYxvEMoJbVzFDQ0OaTqCkpESys7P1iZnAK7W0tFSCweCUp2ok/PSnP5V7771X87ceOHBA/u7v/k4LasUSX2BM3t7Xrer2QkEuJxQLOdg6IJ39fkeN0Zlia0EEHedstPX65dXdHXLe6nJZ2+DM4vZ0ILbCmK8tz5cK5s8jhMwBIgSGFrj4J4kDvJR6jGETTZqb0bEJ+d0rR6W4IFs+bBb+ToC5EkJraRGjKgg5nXBagf0tC/NyBXAwGBub1KJRKEQxn0NFogORFUVk4cl6wHwmpA3IQdoAT3bSpCTB+uFHT+yVNz/okovWVcoXb9skTfXF9rNLA4T7YGhcVtQUMvULcQXYnICXa0u3VyNpCCGJCWorIZrDkx9ZMct3D/ToWhR1jSLdhITtUF4SW6fCNGNgnezo6JBrrrlG6uvr5YUXXrCfOhXkZW1ra9O0AtXVkYWv33nnnbJjxw69DyH35ptvln/+53+WsrIyPRcrvvq/X9YCWP/yuUsWNflrKH1wVAtSNVQXSknh4nI7YAe42RiCWNAW5p8pbEcKfs8Dv3xPQqPj8s+fvnjBxbbmAoY3DPDaSo/UVRQs6c45ISQx8QVG5YBZ8BcXWKIYxozz1lS6OideKoNx/6Bpz9HR6Io4/s/zB+WN3R1y/yc2S9MyZzYAB01fWlVXJGVMJ0CIXpvvH+ieGmvB//Pf74gnL0u+9Mnz7TMLAzalz9i6xZ5sY+sWSV6MikbEAnh7IjS4dzCo+Z7FmKp52ZlJJ/yFzLrh968dldd2tWueuTtvWCtrGhZflNAJBr0hTTlWU+GxzxCSWDSfGJp1Q2nYP6IORctriuwzhJBEAULovqN9mns+knoS0MX+75++rbrV/X+52T47N3DuwM+d11QZ0+gMFVy7urrkqquumlNwhZdqe3t7VIIrfi+8Zo8cOSIPPPCA5olFQa7HH388qlyufX0+FT9no7KyUHp6vPYji9f3dMjDv98nN160TD50To19duGgMWDIobJhZUmuMXAjS7KPwR2GbMh0GCj0CF/ARtpCC2SFefbdVnljT5fcfcMas7h1fmcb79vrH9NJCN6tToqts7UXSVzYXhYYhMvLk38xEe1Yi0iAI21DUlhgbSDBI35VXbGKAGRpWci1C5GzpcurobeRcsgsZH713CHNIYiwVidAeA/yK66uL0qZzT6OtRapMtaCaMZb2GV7jvZr/tEwL25vk1d3dchXPnGeepcvFjgDwGatMrYf7L9ETeWB7wLvFd6sg14rqiI3J10XZUtBaUmBDAxGHv0XLfDY/cMbLTq/XrKxSq69oD5hBGVEFWL+X17lcc1YzbF2mlQZb7fv7Zg1WhVjyZBZ7y6v9khZIdPmJSq8ZpOXs7UtPM+PtA/rdRvpJjBSCeD2+VvWS31lZOMa5rCqsjxj98Q297haU/n51h8ZGTl7Aunwc3l5kXubQJjNycmRDRs2yA9+8ANZt26dHDx4UP785z/br4gNjTWFGtry2p5ODXVcLDA6sQBNSzupbs37jw9oWI83MDplLKNDwADEud6hoLR2e7Wgwf7WQTnW4ZV+Yxhmmd+zWLEVefIgtm5ZWxEzsRVJiWMhthJCkpvMjDT1lCLuA3NYe68/qkJZENyffPWobkRed0G9fXZxYA7CrjYjKwiZmwuaKvQaeXVnh31mcWBRA0G3ZzCkkQvdAwFHbGgnCI8LsKUPtg7J4bYhM9eMaZhhYUHWkomtsQSOGo9vOyK/eu6w5GSly+duXi8f3ro8YcRWeAXhe0eNB47VxI2g3yIvZJtZW2MNTwhZejDfI0c90m9GKrZivnzjg07N2xqp2Iq/g1vJjMihWKGCq8fjUdF1YGBAxsfPHHBwDs9BPC0qWpjbfVZWlnz0ox/V+3v37tVjLLn83Br1Sn1nf7d9ZvHAsMBOLgy84MiYJuLfd7xfPjjWr0cYgChA0NkX0OIxSMpdZIxX5IRFov7MRYbZwvB94pWjUuLJlhsd8iSaCTodPFvh3UCxlRASLVgIDvlYOMuNRFsoC/PFU68dN4vuCbnjqlWLnt/CBEITWqAxGuGXkFSkpDBHN9+3H+rVCConUAHC2Ky5ORlapAI5YuFgAHET13y8wFgEAQQC6/Eu2NoDmu6krccn6WaogRMEFmLJaKfie0Ydiv98/AOzvhiQq8+vk7/5+EYN208UsEE3Pn5SVtR4EtYTmpBIQDRNtlmvH+9KzgKChLiJSTP/dfYHNFUQbJFIeXV3p0boXLslcucPRNMVFeTEZRNTZ0kYLE1NTTIxMSHHjh3TJ2Zy9OhRY/xMajqAuXj66ac1R+sbb7xhnzmVcEGu2URdp8GOa1N9kby+p9PxKoT4vlDhFeIrDL48M1AjJys8A3DzmBuedzoXxAvvt0m/6YAfv7wxolwW0QDjFp6tcKuuKaPYSgiJHiy8RscQlsrKr24CwgYE12giMN4/2KvFdq6/sF6qzZzhBOHiFVWlsQ3tISRZuPK8WhUgEUbnJBAhYMvCpoWDwZH2IS1E1dHr11zdcGhwUpzAtQ8PFeRiRRghHBkOnxhUr3uMT3BggM2NWzLnCIeg/F9/3K9FCEsLc1RoheCakUCiJgRhv2l/hGEj1Rohbgdr6olxy6sunhtLhJBpYFO0dHo1yiYasRVFst7Z162F5CtLIo/EHzXXPHKix4OpGfzKK6/U43PPPafHmYTPXX311Xo8GxBmf/e738kjjzxinzkV5HAFmzZt0mOsufqCemOoTcjb+7rsM84DUdVpYXU2kCfvbdOZtm6okpW1zib3htjqDYxJrVk015QxNIgQshjSJOjwJheJHdhNhqiRnZke8dgPUeTpt1u1qNUlGyPL6R4J/uCE1JTnJ7WgQoiTYLP/ovVVsvtIn26aOE3YwQAepUgZM6B5nn3S3D6kkV17j/XL0Y5hFQoxLkCMhTcsRFIIqMOBUc0N3TMYMOOMT9NitXZ51WsVUWK4NbcNmt8zIIfbhqWrP2gWXRPiybOcGtSBIdt5B4ZEA+nInnj1qPzkD/vNdzgqt13RKJ+7Zb1UlSZe0UBEwtWU5alnECHJQkF+pgz6R6RvKGSfIYTEC6SoQaQ4NvMQGR6NFrXN3nDG5mSkQNzNykyLWzTd1Krmjjvu0JQBDz30kOzZs8c+K7J79255+OGHJTc3V+6++277rGgBrebmZunv77fPiNx22236OuRofeqpp+yzop6z3/3ud9XzFYW5PvKRj9jPxBZ4ua5tKJY3PujSCp9uBV5Ej75wWKqN4XVdFK7SkRAWW/Fd0auIELJYMpDH1SweiTtAnkZNgZMTmdExYYyUx185qqIoRAGnNuiQMgdeJvDqIoREzhXn1miNAKe9XE8HEQxYnMDzxIroylbPU0Q0QFjtMmMJxFgIsPBObW4f1nQEqH2A9ATwQvGHRiVg7HHkZhsxPzdqbtj0gcCKRRZED4T3OTWuJDpY9L22u0O+/9ge2XOkXy47p0b+/o5zZLOdnzfRQOGuYk+OVMa4wAghS0FhXpa09fql30vRlZB4MewfMTbDkGDGi7bWETZ6dxzulQvXVUqJmZsiBQ6Z8IZNj9M8OyW4Llu2TNMB+Hw+ueuuu+QLX/iCfP7zn5dPfepT4vf75Vvf+paUl5fbrxZ97c033yy/+MUv7DMitbW18s1vftMsuDPkn/7pn1TEvf/+++XGG2+U73//+1JWViYPPvigCrvx4urz6zXH3Jt7Y+flGkv2HRuQR19sVrH1Mx9Z52ieiSmxtbJAi2QRQshiQXEPLKxJ4gMjp6s/EFXozks72qWjLyAfv2yFCi5OgBA+GD+Yi+Jl/BCSLKBGwCWbqtVLFNdmPIHnKexSpNcqyMuaFmMR/m+nJICXKp7Da+CtmpOdYd3Mz+FnUR8hVQTWMBjzUID3B7/7QJ5/r00aa4vki7dvkhsuWuZ4yjAnwPsd9o/pgrahysNxmiQlGM9Qp+VEl08GKLoSElMwr3T2YpPWq5u3sAuiAQ4gv3v1mGQbGwLplSJF04aY/4vjGKVxStzePffcIz/84Q9l8+bN8t5776mn65YtW+SnP/2peq9Gwu23364i7HXXXSdtbW2ybds2Pf/pT39a0w1s3LhRH8cLFH9CxbK39nZriJOb2N3cJ795uVnqKvLl0x9eG3GltkiwxNZRWVbpkYpiiq2EEGdArjkU03DbeJtqIHwH3mgQQiIVOxD++9ruTrlgTYWsX1Fqn1088HhDASCPeS+EkOj50MZqXbC8tL3NPkMSFWxy/ezpg+pMgTQNn75prdx1fZOUFcUnl1y0YHGKNALlRTlauCvZ0zuQ1Ab5q+Fp30rRlZCYgDkFqYeQrx0RMNiYXUjh3efea9OUaB+/fIWuZSIFDh4lhfHNB59mPnTCZ4fu6/OpQDgblZWF0tPjtR9ZIE8UPKzCAiXCnH70xF7ZvLpcbnUwBDKWbD/YI0+9flwaawrVEHPes3VUGqoK427gzdZeJHFhe1lggVFenjgVgmNFtGOtP2QmzLYh9WaaCXL3YeewvjL5v7NEZa5rF2GszW3D5t7JiHeU0aY/fnKvGkUo5OLUnDQ+PikjY5OyZlmxo/Oc2+BYa5EqYy2IZryFqb7naL8uTM7Gq7s6tLjq525en1AV7ZOd0pICGRj024/ODlK3vLS9Xd4/1KOevtdcUCcXrq1MaAET/Q5pBJByLFkK6nKsnSZVxtvte9uN3ROd3IFCfr7AuKyo9khJYWJuhqQKvGaTA8wnXjMPYtMRTjmI5qipKopo/jydAy0D8usXmuXi9ZXy0UtX2GcjA3nSseZAdFC8iJ+0u4RUG0Phqs21srO5T71zEh1UWoPYurq+SD51wxpHF6GYQNDZl0JsJYSkBtjsGvCOqLBHEgvkS0QlXgidkYqtEIUe23ZUk9nfcdUqx+YkGF8Q7RuqClJabCXECVBUtSA3U16gl2tCgfzU23a2y/d+u1u2H+rVdvrSHeeYhWJVQoutGPeRRqC2vCBpxFaSmhxpj16sg6cr0gsc7/Jp4T9CyMLAugMFNQ+2DmmkHGx/FOKMNoVAmEGzvnzi1WMaxX7jRQ322cgImHUMIuriKbaClBBcASqXnbOyTHf/UVU1UXn/YI/86a0WWddQInde1+Sou3N4tw75lyi2EkJiBRZm8CVgLtfEI1xJHCFzkQKxAKE/H7lkudRVFNhnFw9yiGNDlNWuCVk82LS4/Nxas6Dx6vVKlhYIlrDpH3xsj3q2rqorkr+7fZN8eOtyR1OExQK895kFdSm2EjfzxgedZ40mmAsVXfMgunopuhISJVaExIgcah3Sayg93RJaF+Nggbytv335iPndIn959aqoUhHgZ/FzdeXxL/qYMoIrjIVbL29UsfF3rxyVEz0++5nEATlbf//6cWmqL5JPXGM6UYZzzQNvJl9wXBqqPVLG0AhCSIzJy8nQCvjY2SSJARYMHVEWyULl0G07OzQlz5a1FfbZxYNwooLcLF3ME0Kc4aJ1lVJamCNPvHpUfIEx+yyJJ1hkItzxR09+oDZ9iSdbPvvRdfJX1zVJRXHi299TYisL6pIkARFX8C5fCKhL4MnNlOOdw9LR51fnJULI2cEciByth9uG5FjntNCKApmL5fn326TNztsarfOgLzQutRX5jryPaEkZwRVABf+r61YLKiv/+vnD6pKcKKBa6e+MgYycrZ+8tkkHeKdAOFNwdFxWmt9NsZUQEg+wYTQ2flLDN8jSA7EVO8xYOETqrYSfefyVI1Jdmic3f2i5Y15O2ADEmkWrXSdwSC0hbgN27ievXS2h0Ql59KXD6tFB4sOIsbXf3tcl339sj+aWm5g8qW1x383rZXl1of2qxMYSW1lQlyQXNeX58vKOdl0PLwSsySEYIUII0QMsCkvI7GhtD3ONNLcNqfDqlNAKDrQMypsfdMlF6ytlY2OZfTYycM0W5mVJqWdpIupSSnAF8Kj51PVNmjz7V88f0krNSw08iH7z8hEN3UGBLCfTCIRMBxszn3V1XQnDNgkhcSU7K016BoL2I7JUoNLu8U5LbI10Mw/5d3/zYrMKoxANnDKYYID5zby0vNrDvK2ExADk20RE14luv6aoIrGlbygoT7/dKv/x6C7581utkm/GWYQ6fvH2TbJhRalrwvGnxNaqQil3gScuIZFy+Tm16nH35t4u+0z04DpGgVhcJ4dPDJrrPqT2DCFEZGR0QtcZ0LSwfij2LC51wOlYeVuPqn1zU5R5W3HN4j3VV3iWbD5OOcEVIEQGnq59QyPy6AvNSyq6wtX60RcPS5V5T3c7XCArEBw3HStdmupRiS2x80URQpIPVKD0hsZ0IiZLA8TW1i6fFn+IJnICAkJ7X0Buu6LR0Zzf3sC4eswi0oQQEhs2rSyTy8+tkfcP9sp7B3rss8RJ2nv98puXmuXb/+dtLXaLqsefu2W9uW3Q7x/5H91CWGxFQd1y1nggSQaK66xbXiKv7+lUD7zFgEI/BXlZcqLXpwLT2DjtW5K6QMjs7PfLwdYBvbYgtC60GNbZ8AfH5OfPHtT7mnIzSsdEpNSsLStw/H1FQ0oKrmBlbZHcahaSLWYh+l9/2C/9wyH7mfjR3D4kjzx3SPNtffqmNZLrYBJ95O5Cx0KSfogehBDiNC1dXl2onQ3sJGaY24Av/uMrEen3hnSOQ4GsaBb/Ow5ZIs1l59TI+hWl9tnFg/QSqKLOvK2ExJ5rL6jXmgB/erNFx2qyeODRhrx0//30AXn49/ukuW1Yrt3SIF/5xLlyx9WrNBTfbSAnpdcsaCG2sqAuSVau31IvY+OT8srODvvMwkEqpOKCbAmMjMv+lkHN7ZoIEbOExAvMhYNmjXGwdVB6B0O6CREL5z5cV7949pAM+8c0CjzaOQoOP6gpUrbEURspK7iC81aXyz03rVFF/id/2CfHOuJT1RWdFHmefmk6UImKrWtNJ428iMl8QGz1mI7fWFvoaHoCQggJg2JYD/x6p7xlxrK5wESHyZiFBuILUjlMebZGIbae6PbJH944rvPHdWaB4hTInYZAHuQyTHdJiC0hbgaiwB1XrTJ2Zrb8z4vNMuQftZ8h0YL0XNsP9siPn9yrtjvCiW+4aJn8wyfPk49fuUrz1LkReCdpQd0qD8VWktQguvWCNRXy7oEex5ysIDBhE3lgeESFp6Ptw5q6gMViSbICWx62BDYbj5v1QnZWullnZMWkHgM2SB55/rB0m/UMUptFmwsdehsEV2yELvW6I+XVOHi6fv6WDZrb9efPHIp56BVEhz++0aJ5ntYsK9Fk+k6GVvqN4ZSXkykN1R5XhTMRQtwFJq91DSWy+0j/nF6umITxrJeL/bgAQ7+zzy9HO4aiFluHTRs9+mKzigefuHq1YwYUCvegoEyjmW+5CUhI/EDk1J3XNcmYuQZ/9dwhrdZNIgOhwh8c7Zdfv3BYNxefev24FsJCftyv/OW5GgGwlCGKiwWL2WCIBXVJ6nD1+XXGJkqTF7e322cWD+yk/LxMtZtGxse1YNDBlgEVdeloQNwO+jA2EZA2AEWrDrQOyvHOYZk4Oale3iiQHAvwd3/7crNG6d1+ZaOm7IkWOCBWleWpLrbUcOVjwK4u8i6tqitUz54/v9USk5wsCKf8BUTdgz2aW+vO61Y7Gu4PwyknK11WGOOJYishJNZgHPObcefQiUH7zOzkZqdL9yALDMQaeCvBqxXfdYknJ6p5AIvvR184rLvXEGicCg1Cm1seVIUJYfQQkmpUluSpd8iQb1Q9NPcfH7CfIaeD8QrRbr975ag88MhOs+A7Im09fq2K/PmPbdBCWOevqYgqH3YignEenj+r6otZUJekDHBwunRjtW6kIAez0+RmQ3jNUhHqRI9PDpixtncoqLYZIW4B8yCiv1u7vbL32IBuIiCqIyMD11CWbi7EMl0l/v5Trx2Xg61D8tFLl8s5q8rtZyIHc1x2VqbaP4kAVTkbDJJ3Xb9GLjED8dv7uuX/fXSXPPfuCRn0Ld4bAB2ntdunaQtwvP3KlXL9hcs0v6FTBEfGJd0srlfUFMVst4EQQmaCSRDhVPNFBqDCPfLwIN8ViQ1YPMMowo4uDP5owmfUuHn9mBbJ+ourVklVqXMGitc/JtVleSoAE0KWhtV1xfI3t26U8qIc9WJ/+u0W9TwnFigY9cquDnnwsT3y308fVE8eFL6698NrNW3Ah7cul/qKAkft9qUCc/HYxElZXV+s0X2EpBLwTM/PyZSnXjumnnuxAEV9VJTKyZCOXr9ucnUPBHRjm5BEBc6G2CA40DIgR9qG9PrwqPd2luZojYe+hPXIM2+3yq7mPrnmgjq5eH2V/Uzk4HcEzZqooaogYRwQM/4vg30/YQkGR82XZz84jYKCHAkYQ2kmMJwQvhht6CIMKVT0X1lbqF5bOw73qvjaZQZJdDS4TkdjbPUMBvXn//D6cXnjgy4NY7j7xrWytqHEfoUzhBN1o0BWdoIXyJqtvUjiwvaywHWfnwJV1aMda7U6ZV9A0wpsXl0+Z+E/DJ2D3hEp8WTTA99hYBQd7RgWJG9AaBvIy82WUITVeFG596293XKtMW62rKu0zy4ef2BcFx11SSJUxBKOtRapMtaCaMfbbmNTLsarBB7m5zWVq30M27S5fVhW1RY5WrDVTWCtsO/YgLy4vU3++GaLGUO9Ul2aJ9duqZdbL18hGxrLtKjtfGNXNGPtUoJFKNKOwTljdW1xyrY7x9ppUmW87ezxTeVVhWiETWXkcoX3HkKVYxV9g41vpB3B3xz0jaqXINKSwAbOzEijXRQhvGZjh84LoXHpMGu5tl6f+IzdDjsjLzdTdbRY99GZ8+eQb0R+9+pR2dXcL5dsqNI6Egv5+4iqqyrJk9IEykueZr7ohI/x7OszA+VZcgRWVhZKT8+p1VfbTYdBQt/FDqBoeAzI7x/skeDIhBaiqi3Pt25mAVlnjghPgGcRDLfhwJgeMahid6CzP2g6ikhjTaF6gm1YUaKetE4Cw3kCO9V1xa7IJTVbe5HEhe1lgRxN5eXuqz4cLdGOtQg52XGoR37yh/1y5Xm1ulCdC6RVyTYTOHJ50hN/8WD67hsOaWgc5ruZm4ylJQUyMDh/yBwKPSAp/abGUq2y7ZRxpVEXaWZhX8+2jgSOtRapMtaCaMZbXOt7jvZrOJ8TQGh88rVjaqN+6JwauXBtZUwqDCcS8C5r6fKq0HykbVgFbIDvFEV0UVBnIYWjIh1rlwr0HYzH42atgPDKiuK8lM6lzbF2mlQZb7fv7TgjrB8FQn9lbB+MgXffsEY3hmMNxvvg6Liu23ENVpprETqCm3NBxwNes86D+XA4MGp7XqM/pkmu6Yfx3gTA/NnX79MCzC/ZuZWvOb9OLt1UvaD3glQCMKuwkZJIzj0UXCMALtZ7jg5oXifsAPQOTVc3xA4VjJjTQejROavKzCK2TKu3xQJ0Klwk8GyN1e6c03DQdBdsLwsKrrP3BQiuCDt56o3j6un6vz557rwTHELeYWCisB+r1S8cLB6QW3DQPyKFeWdWCI1EBEDy+9++1KwL8PtuXmcMLmeMfnhRQWRtrC2MaZ6nZIJjrQUFV4vT+4PTgitAUZc/vdWi1YZxvW5uKte0WhXFyVFACd9Z//CIHDZzFG7HO71qryPabLmZfxBSv9rYz/B2W8wiM5EFV0TAjY5OSnFhjtSU5lPYMXCsnSaVBVeA9fwvnjmo6a6Q5xpRrvEC7yc0MqHjFLzN4U0Ppyw4JcTDs9BN8JpdPChCBXsDQiscNQa9oyKmi+XlWB7YS4U3NCG/ema/OilCJEXO1oWmIMO1hDRmq83vSbR0ORRcFwCEzs7+gIqv+DvwfIURDBFBkwmbm1ML17OB9zA6NqkGo1vEVsBB012wvSwouM7eF8KCK3J/opLzXxmDdf2KUvvZszNsJsTKklypLY+9R0EyAm+l411emRg/KQX5s4//84kAOw/3qocbIjbg3ZHvgHGixo4K6llaJIuerZHDsdaCgqvF6f0B15bTgmuY7oGgvLW3S3OmIdwVi56tG6pkZW3RGRs5iQy+y7DHPzajILIi4gyUF+VKU32RFolqrPE4aqMnouCK7wKbm0iHhnk22b2Xo4Fj7TSpLrgCRKb+8tlD0jMYkluvaFRv93iDNT0iVsVMByfT0iRDhbAsrZGAaxfr/FS2p3jNWiAtBsZ2eEhDQB039/WxHiGoYuyfFPgB6vPjk5qvG8cpS8P8DhR9hNC6lKI+1o/bdnTIu/u71THxI5csl/XLSxb1nrD+wIZxIq4tKbi6EHjchkYgthY5skiOJxw03QXby4KC6+x9ISy4YlH3v3+zS3Pm3HPTWvvZs4NpZ8g/Jg2VHilPEm+qeIDvbcA7otVvEfozV87uuUSANz/okmfeadV85X91XZMjXqjoNzB20J51xthxk1CTCHCstaDganF6f4il4BrGHxzTNFrvmAUQ0r/AeQA5Xzc3VahgmUhgMdk3NCJdcH4wN4isiLIYNQtLEE5dA5EVjgnwHosViSa4woMJHnuItEO70VPuVDjWTkPB1QKe4CgmeKzDK1durpWrzqtVUWqpwHiP63jMvGeIaFDLILyWmHEMBb+WIvR7KUnVaxZ6D4o/+ZC20j+q4ikEU9P49ivUSdU6mjvWLU3P4YiAQ1zjiCZMlP6CDY7X93Rpuk708SvPr5fLNlYtOvoiUVMJhKHg6jLQOTExrKpzZ3VRGjrugu1lQcF19r4QFlwLC7Llpe1tsm1nh3z5L8+NaHEbFugg+hUVsIL9fCBXOCIrBn0h3Q2ez6CYTQTAdI8cSajGvX5Fidxx1SpHvCZQ7RyFu5DbHDnJuMCPHo61FhRcLU7vD/EQXMNAmEBu5x2HejXfKVYJDVUe9fxaVmVd42ineICxZcA3qukPkB4A+ea6BoLqlQuvHoAUATXl+brRU1dhjrbQGK/3mEiCK9YH4+MnVWxG9B05E46106TKeDuf4ArwPIpc72zu0+J5H7+8MS55XSMhLMAishXjcUZGmhTkWZ6vOVmZkmUew5bLzExPylRdyXDNYq63PFHto2nIsAR3ihVgHgTM2mrQP6oiokia5lfFJuJSbgIsFhRNfm1Pp9oV+OznriqXK86tkTWNFYueP/E9JmoqgTAUXF0EXMIRSrqyrti1hhQNHXfB9rKg4Dp7X5gpuGL3FV6ul5sJ9Loty+xXzA0MXHhSYTFfWkhP19nAd9Q7FJSegaAa2ZjXIhE0TxcB0K7I1/jegR4tDnPLh1Y4IkiE23B5deGC8y4RjrVhUmWsBYkquM4E4/ruI31mkdSn4foAC/vqsjwtHIvQPXhdIY80NoKwKIx2wwWbSfDcH/CZG472DSIrbPmZqxSE2FaX5asggmONuZUX5yypR0uiCK5TubNrCpmrdQ441k5DwfVMDrQMyh/fPK6byCjcc8359ZpTNZGwwsVPyrg5TsLrET6N9rCrFeaNnQiPWNzHe8fNzUJsIl6zmLuRBgJRFQHTV/wjY6aPTYuoirmLR3jtjLPWSTBLk+DnUR8IEWzJkEaio88vb+/tNnZEv37eC5oq5DKzTgw75jgxf0Js1ei6BNkgmQ0Kri5B87sYo3SFMaTc7A1GQ8ddsL0sKLjO3hdmCq7gkecPmfE3suJZYWA4+gLjuoCvLs2nd6QNdoCHfSOaHxdtAuM5GoF0phEDQfSxbUfkSPuwXHZOjVx/Yb0j3zO8z7DIR3EseikvDo61FhRcLU7vD0sluIbB3+8bCmntAoxJWETNDOEPg4U9HAKw0MdnC3vyhD17wl49CJMN3z+98Cxs99LCbCkrypUysyjDEYuzsqKchPReWWrBFd+h18yhSAGxrMqTFIv0WMKxdhoKrrMTGhmXZ989IdsP9eq48/HLGnX9nehgLMBYa+XuxOeFnYfxNU3H5JzsdMnNslISYKzGWBG2K1WQtf4/xT7E79Sj/nvm8/Fgtms2PH/gvcwnJk/PPXjv1jkcNfgej815FbHNXITvDzeE8yNXavjv4Gf195gXj4xOWjl3gXkCnqcqas8Yeq3Afgv9W/O8x2QC390HRwfk3QPduiZEP7twbYV8yKw/iuz1YpjFzp9wRMTvRwH5REwlEIaCqwvAYhk01iBnq7s/Ew0dd8H2sqDgOntfOF1wRRjqI88flk9es1o2NM5fPCsMpiHsUMJTqr6yIKEnzViDRQHyNfUMhdSQwJi/kAV02IhBGoJHXzis6RtuvnS5XLC20n7F4ggL5ViE0LN18XCstaDganF6f8AYuZSC62zgPSHMH/Y2vMFwwziDI5wE0JYI98cN97Eoto7W4hP3sQZFTkIIqohygNCKSt1uYikFV/SfYfOdhz1+kzGc2Gk41k6TKuNttIJrGGxS//71Y1p8b3NTuVxzfp0Uu9DewVitQuJE2CvWnMRQAQlIjxiU8UrrFMbo8MykL7Gfw4OT5oUwSa3x3RIZccRL0nAe9zC+Wwf711p3rMfWmfBj6/W4bz0DgRN/HH9Jp0dzKynNl+5ur1UAyrQjBD1r7rR/1tzD+7EEZOsxmhuvxetU6sJJ/GPfx1+zzusTCh6HH1lzlN6z37fe1fMZ5ob0DeRUegaDGkW383CfCtIojnzhuko5b1W55J5Fk1vM/Ak7AyJ5U33xnDUtEgEKrgkMmsYXHJc8Y3yucLiq6lJBQ8ddsL0sUsUoXazgip/97m93S7F5/NmPrlPDJBogumLcTpbxLlJgYGJjbcAbUsMeY/98RbHmA0bMK++3yJOvHTffaYZ88trVsqzSmT6MdvYGxzQVRBlTQTgCx1qLVBlrgdsFV2KxVIIrvNj8I+M6ridaUbNEhmPtNBRc5weizss72uXtfd36+KL1lXLFebWurKMSKWFp6Gw2PJ7HS8Jeo+HX6794jP+sU1NMPz79tTZTdwwzBU5zKDFjrHc4qAJoeONu5nsLvx8crSl12vMVL4t2LUKi40S3T17d3SEHW4d0gxUONxBal5s1wnzf/ULnT0TYYd20ur7EFc6IFFwTlPCCtrwwRwuRJIvHFw0dd8H2sqDgOntfOF1wBag8+fvXj8uNFy+TD22qsc9GTtijHxWWEXqSrIYSDFWErQ0HUBBmRHdpkRjfieqzaMNX93TJS++fkOXVHvnENasdy/utc1NgTENXuch3Do61FhRcLU7vDzDVKbgmJkshuCLFGIrosDhW9HCsnYaCa+QM+Ubk5Z0dsvNwr2RlpGt+V9i4zJcce5ZqU4ucHdgkRzu88uquDjnW6VXHjq0bqnVDIprNiIW0rbUOGdXIb7d4nNMfOgFBqCbE1tryfKmv9CSN2EoISX5QkGldQ4m88F6b5viLFuxUIhfS8S6vHG4b0knVBfuCEQGDH58Hu8H7jvWbzzeseRGRV6uoIEs3CRcrtmKz8b+fPqBi69YNVXLvh9c6KrYifBViOMVWQuIHxgUUjApvSJHUBX0AM2LTMvcW0CXEbUDYufXyRvnibZtkdX2xbNvZoRFdL25vmyooSEiyEwiNyQdH++Unf9gnP3/moPb9my5eJv/rE+fJ1efXxdzzG+tBSyMrcFV6D3q4Jhhh7yF4JSVj1W7uLLsLtpcFPVxn7wuzebgCTMg/fGKvemv+9cc3LDg9AEK5gqMTUpCTJTXl+a5cXGIDzW8WyINeK9chplwIyihggH7lJPuPD8iTrx3TNvzk9Wtlda1zfRbhO8jNiIiLqpJ8+yxxCo61FvRwtZitP2A8PHRiyIwd6cwfl0DEy/sKG3aBkJkPczPNGqFQ5xESPRxrp6GH68Jp7/XLSzva5bAZk8GyygI5b3W5bFpZ5uoI20SEHq5LA9YrcApp7fZJa49fWrt8U5sLyLuOIrzIbbyQOhNhom1baGSlnmx1SHRTBGRSCq6d/X7p7g9KYUGWqxojLLZqXrwk9R6ioeMu2F4WFFxn7wtnE1xBc/uQ/OKZQxpecvOlK+yzCwPJ1xFCiWIqyA9bkJelYu5iJvlYAsMeBa8GbJEV7khIF4DQs1jMSSgg8MzbJ+S9gz1SV5Evd1y1SlYvL3fMQIXQgzZYXlXoyoIRboBjrQUFV4uz9Ydh/4gc7RhO6nQrbiPWYgBytQZGJiQrI02qy/OlpCDH8c26VIJj7TQUXBfPsLHxkO4FqQZ6BkOaw3JNQ7FsXl2uxXxQwZ4sDgqu8QNrLazfDrUOaZQhHEYAUgYgXzg0qvDNiXkomrZFdAecVVbWFrluDkxKwRWDakevX/rMYrcwL9MVg11YbEWoZkVJnn02+aCh4y7YXhapYpQ6KbiCZ95plTc/6JI7r2/SNAOLBQtPCH/ht4jq1sWebD1CzFzK9CswUvB9DPlGxWeOmFrhgeRETta56OoPyGPbjqihj93may+o0znPKQM1HMKMXEluSEzvVjjWWqTKWAsWIriCjj6/9A7CqWD2cZfEl1iJAZjvgiMTkpmZJjVl+VJModURONZOkyrjbSwF1zCw+Tr7g7KruU/2HOlToQqeruesLJPzmsqlrjyfm2QLhIJrbOkfDmnBq0MnBuV4l2WXYO2CDYOVtYUqrpYX58ak/0batoHguGRlpetaxI3RHUkpuAJ8LCS4PtHjN4vPtIR279f36h/TwbiqNLlDNWnouAu2lwUF19n7wnyCKwzcn/x+n24m/d1tm8TjYMEXjJsoGjI6NjlV3DQ/J0PfS35OlhV2m5HuuIGAv4vPNap/e0I9WeHhgPdiplTJzk6XbGMMxNqwxt/dtqNd3tnfo0LobVc2yuq6YvvZxRuo+Jw+Y+DkZWfKihqPMXBYGCKWcKy1oOBqMVd/wM8caR/ScSiXoatLjtNigKahweLSzF+o5VBEodVRONZOQ8E1NmCMhpfgrsN9sr9l0FzTJ6WiOFdTDmxsLE3aKNZYQcHVWWDfIyUG+ubB1kF12ACVJbmyZlmJemg3VDrjwTofkbStz6whoeOtqClM2MjG+UhawTUMvKFQoAQ7TZ68zIQzWvD1D/vHpLosT2rKCuyzyQsNHXfB9rJIFaPUacEV9AwG5aGn9sqK6kL51A1rYjYGYyyFQT0CARafIS1N8JdyczJUNIQwASEUfz/dPBc+IvwLL5z5riCW4nuAiDoGcdXMI6HRcRU5kVN2atY0R3gfYbc1XkYAcqm+s79bCzZgfkORsmu31J+RqH4xBio+O5LSlxfmaM5WFm6MPRxrLVJlrAWLsm3NOARvFIT5MWR1aXFKDMAcBqEV8w/WBGWFuTGbL1MZjrXTpMp4G2/BdSYhYzfuPT6gnq8tXT49B/F13fISjfyqryyI+Qa926HgujgwtyDFWddA0KzZhuVA66DWZEC3w9oMfXGt6YvIyxpv5mtbiK0FeZnSUOVesRUkveAKJs1HRPhVZ3/ANJbl7ZoIgxsGfxhXVaUQW1Mj1ICGjrtge1mkilEaC8EVvLu/W/74ZosalrddsVKNzXhgibCWEGsZ2/YYi2kPd/FRTxt39Sl9LnzHeikiJTB/xMJrNhLwWbAb/fy7J6TfGE6r64rkxosbdP6YjYUaqMgHizDWuvKCmIUQkTPhWGtBwdUikv4w6A3JMbOAL3ZZvYJkY7FiAMZ2bOZNmLmqsiRP04q5eWGZ6HCsnYaCa3wZ9I3IAWPHQfA63ulVMxNF8CB2aeh2daHWKSCnQsE1MuCQMegf1X7WOxiS7oGgiqxwfLGi8FBPIl1TBUBkXbOseMkjwOdqW0QPFuVnm+vC43rHj5QQXMPAI6B7ICADpiOiwy1lJ0MuipPGPl5WUZBSRUho6LgLtpcFBdfZ+0KkgitATiuIrjB6r9tSL1s3VOv3SuYGXqwIS3v3QLeG/SDk58aLGqTJGEpzsRADNRgy85I5ImzndI9ZEls41lpQcLWItD+09fikdzikBZUSxZkg1VioGIDlVwBCq1kHl5o5tKosXwuCkNjCsXaaVBlvX9t+woyR2ENPnPERmywoSgQBtrltWG09AMF1ebVVlGh5daHafKk+rqey4Ip5ArZ/n5nnrTRqE1MpzfAYEdxaoNc3IsOBMfunLFDfAk4Z1eaGo3U/XzIzE0e8nK1t8Zm9gXEp8WRroa5kWCumlOAaBoMcVP9B/4jkmE4XzxxY6tVqLo4ST456ELkx8e9ioKHjLtheFhRcZ+8L0QiuwBsYlT+8cVyTs8OYvO2KRuayOgvYkYZn8M7mPs1Ti1x+WzdUybmryiMyPqIxUC3jZkxFVhj6zNcafzjWWlBwtYimP8CmRdELLLrw25BmgB6S8SNaMQBtHgyh+OOkzn+IJMjNZi7eeMGxdppUGW/3N/fIiW6vFORlJeTYiDGhayCgKQdau316RMg3gAdsY22ResCuMseSJQj7XmpSTXCFh+rRDq+5Dcsxcwz3hdNBX0YNBwiTpZ4c7Ru4D42p3MwtCMVPdLF+ZttiLRIatYRkzI11FQWa+i0ZSEnBNQyqL6PCszc4qg2KXH+xGojxNcPAwqdAWC12sFJxx4qGjrtge1lQcJ29L0QruAKMhbuP9Muf3mzRQgKXn1sjF62vpEelAXli9x2zcn2hUijyy25aWabfT70xPKKZMyI1UJFCIGDmpvDOdyRiLnEejrUWFFwtFtIfsEgZDoxqJBfuY6HO/K6xJ9KxFsWwAsEJM45bORyxoMymR2vc4Vg7TSrZtgPDIWnp9mku/5zsxL7uYCcP+kY17QBEN4hvYdENeTYbawrVZsNmDcaSZNcU3Cq4qvYzMq4ODdZtVOsj4D7OY/5H2kuYAag9gftDpt2RNgxgDl9pi+015QVaDDg7M0Or9aOoYjLY62jbvn6famQTJyc16rvS9Olki9hJacE1DNz4vf5R6R0Kqps28vRht9mJjqwXm+lE48bQwiCJXK2p7D1EQ8ddsL0sUskojbXgGga5ef78VosgLynG3M2rK+SSTdVxy++aKGARjnAyiKyoFoqcs2VFOXJ+U4UWxIJHxkKYz0BFO8OAR5QFQnYK85k3bCnhWGtBwdViMf0BizZ4yHT0BlTcgwcMiR3zjbVWXmyztkgXqSjNk1JPbspFtyUSHGunSTXbFiLX8S6v5kuG959bgJbQOxSyxNd2r34GeAKGgbNYubEbYT8jB3SVuSEVATZ1kkWUSzTBFf0J8yxC/ftM2wx4R3VNBGc+3PS+6W+zqWwI9ce8jLZB88DpD+IiHuO5xtpCFVqTPZ3E+PikZOdly/BQ0PTbXCktzE3atDoUXGeg4qi5OLCrhGIE4+ZvZqSlS3Y2qlBH1wHwfnHB4dvFDhRuzM1EQ8dtsL0sUs0onY3Z+sJiBNcwCJ1/a2+X7Dzcpx6vaxuKNb8rdvCTwVCcDaSWgeG8/7hVPAFzBXZzz1lZKueuLo/am3U2zmaghue5CWOrV5fnadiR25PRJwMcay1SZawFsbZtIfS19wY0fRY8ZWIVwZXqzDbWYpyFMwfSweRkZUp1aa7Okxxrlx6OtdOkom0L++tEt0+G/KPiyc905TWJ8QXpCSHCQuyzjkE9QsMIgyipsBesJy9LN/D1aOYDHCHupZnXwNROw3/mq8ARP5eZiWNifDfxEFzxncLpDrUMIJTihto/sJchbls3CKlWCp/+4RFds4SBxuPJg5Bqvlfz/eI7xn0cC/Oz1KkBR3zvqT4Xh4vzwtt845oqGQuNJv3cSMH1LMBDABeaPzimxiouOHxTugjWr8xeDKeZ+6h+hYfWC6zT5gZ3f3i1Mh/eNDR03AXby4KC6+x9wQnBNQzG2nf2d8u7+3vU0MnNztBKmhBgV5vjUlfSXCyYQ460Dws8eg+dGNSFeHZWuqwxn+2cVWX6WZ0M/53NQEWSfRg5yPOEaAtuAiYOHGstKLhaONUfYOJDWGjrscaC/NyMpPaYWQow1vYP+HSxPmbGdV1Wme8Yi+uK4jxdcPM7Txw41k6TqrYt1vgQzZBWEOchkCVL+hXYeRBe4cyAYks44rP6guNThbkiBcMWQtdRZEmP5gbvfIixeKz37SPEM7xOQ97NETcIt6ejEsoMZspQuKsh9qZNwkeImpmZmeL1h6wx1tzCR4C/gT+Tnm79PfRpVOsfw828Bl6U4fsAYzE+lwrM9tuDmIp1x9nmY4DfjXUJ+kpZoeVIB6/isFOditcc5+cEfRPfNTYha8rydO1YXVWUEuMxBdcIwYWKgQoDABKx4t3gq8NDXOjYIbIueuuWSDtDiQQNHXfB9rKg4Dp7X3BScA2DsRaVWxFef+jEkHp/woZZXuWR+krPVKVN7Ngn8i4xRI6WLq+0dvk0bxgKNQIYa+saSmT9ihINGYrVZ5gpuKJNkT4ARg5yiGOHnSQWHGstKLhaON0fMK52Dfi1sBYWmnm5GbRRFwnWAFg85hfkyPBwSMfVIjMX5mVn6sIcfZkkHhxrp0l12xberggLh32G+9gcSea815gH4NwAexD2OzbgoWuotGEfw0InREp8J2PjJ/U4U7i0zk8f9TZ1bvY5bTFkZKSpoAsHNuto3QDeK24QZvHeVaA1c5uKxOGbaVOkLoMgGv6cejQ/j/sYr+HUAfscwinuo/gkjngOaSbDf49EB9pGoz1M38B3W12Wr3NluBhWqozHFFxJXGF7uQu2lwUF19n7QiwE15ngvbT3+uXgiUE5fGJYugeDU+8PczXC4eGpWVuRL3XlBVrJP15FSJB7tW9oRMO5hvwjKrAO+8f0OGQMeIQdARiHy6o8Wv1/RU2hNFR64rIQDwuuAdNGSB+A7yZZ8nklIxxrLVJlrAVLYdsilG/AjE+9KjCc1GKxLNwUHRAZUJsBEW5F+TmybnWFBHyhqQUkSWw41k5D29YC9hxC8eHxCtEwJztdI4DosRg9+J7DQuzMkPuZnP61YhNQj+mmT5on0S+to/W4rNQT85QCxDkgzofGJrQQGNoSG5HIzzpbtEeqjMcUXElcYXu5C7aXBY3S2ftCrAXX0wmLnPBG6B4M6LGzP6gFuMIgyXx4BxW7qdix1p1r+35BbpbuXEdqSCMEBl5hyNfUM2SHaJm/2zscOuW7wu53UX62MSyytGIs3gNE1qWq/F/gyZX2zmEp8eRITTnTByQ6HGstUmWsBUtp2+LvomIywk2R7gQrYKQ4wQYRRYZTwTIJ4gHSwMCDCt8RCtNgnIfHFa9dd8H2moa27anAxkQRbWyco5I8fiTDmE65xn5KZs/XRCceOVzJ4oDICo9pZNnMMfNiaWG2rsNyzdprrs3IVBmPKbiSuML2chdsLwsapbP3BQiuh08MSbEnPoLr2UB4VEefXwvE4NjVH9R8TFgkzwYmf0t8zVRjINO0L0KWEGKLI0wDGNwQWmF0z6TEfNZKVIFFagNzxMIb5xB2lAhCBaZ05OoqLyuQwux0TdRPEh+OtRYUXC3i2R8Q7gdPeHh4YSzFGIJUJ6kcFq8C6+ikTJjvAsM6NuqwmZafc+aGHa9dd8H2moa27dmB+AoByRcwtqBvREPm0411iKiARE5nlYxQcE1McE0FR8fNtWKJrOXFObrmiMbBI1XGYwquJK6wvdwF28uCRunsfQHePm3dPs2BFS8v12jAohneW8gDq1VHQ8hbhSqj5hi0jjCoNfeTMa5xnJiw8kDBaCgrypGyQnMryrXum2Mie4qigiq8sCAGb2yqkv5+GqhugWOtBQVXi6XqDwgFRV7SYf+IbjhhIYXcd6kgviLdQmgEm3QnJScbhVFydGMux3z2ufLd8tp1F2yvaWjbRgakEmxMDQdGpX8IxZtOat2W3Gxs0lN8jTUUXBMDXEOaLsLcsFbCNYDUbsWenAU7naTKeEzBlcQVtpe7YHtZ0Cg9e1/A6493DauA6clnMaalABVZ8f3n52ZpUSykUOC16y7YXhYUXC0SoT/gvWGjatA7optqWC6ka/ESeHhZBUjcBj6TtcFmHeHFpqsg81nyzIIRm2oIg6SHTvLC9pqGtm30YBy0NqVGpd8bkjEIT5KmeV9RqIk4DwXX+IN1BZxWkOs9fOWY4ULXGTNTtC12IzZVxmOODIQQQhYMJtuGqkJBFU94kpL4gfyyyDcWGp3Uwlyr6otUbCWEkMWCsR3iI8aWjY1lsrKuWL1ZoLMibQnSrfjMLTQCz/oJ9XyJpQ8HfjdEk7P9DZyHgIpFopUmYVzfH96n128dIZTg/SMsGFEL9RUeaawpkvUNJbJmWYl+Pua7JoScDWw0wc5Cnv71y0tlTX2xVJblar7XYXu8wXgYy7GQECfBvIl5XOdLM1diM2HUzKMFZv6vqyiQVXVmjlxeYtkBtUXa9xEFuFixNZWghyuJK2wvd8H2sqAXwPx9AYvcI+3Dxsic1LyoJDZoyC8S05upG0Z/eXGuGj6n5xTjtesu2F4WqTLWAjfbtligjYxOav42CJuWJwwKS9lCw2zer/ioOB3+yOGXhF8/9bz1eOql9nk8TjP9A5WP9XyYGa9HDm4UMMxMt6qMIx1AtjlmmfExM9PK0+00vHbdBdtrGtq2zjKVD9s7Kj5zBNCkdAyi9+uCoYerc+A6QEqAsbFJe349qZ7Z2FyFxypSA6C/xitPcaqMxxRcSVxhe7kLtpcFjdLI+gKMzea2IV300kvIGTBFY6cZBVwARIPK4jwrMb0xjM4Gr113wfayoOBq4eb+gM8EQRYfDeOXuWsWdvBMtR6D09MR4CEk0/BpfWz+QYFDaKQ4zvwZ/B78KuTbBtbrTv2d8YLXrrtge01D2zZ2hPNhQ4BFEVZslGMkRFoWFBhi+oHIoeC6cE5fQ2A+hbCKFHCITMRabSk3A1JlPObVTgghxBEwcSPcBMnUEZYCg5NED3InoVq4huwGxzVnInKzNi0r1hC2ipK8OcVWQghZKiDiZJkxC/MBFnThXG/woMFGEW64P/OG5/E6eO3jNnMhCK/UMwVaS2CFFw5uSyW2EkLIbGBcwthWVZqv6Uo2NJZOpWWB9usNjKqNB0GWtjJxChVYxyZ0DTFs1mGo7xBeQ6xpKNa0AI1mnVZRnKf9k57X8YHfMiGEEMfAYhnGZW1FvoasIBfQyCh29slcwPvCbwzvcO6kqpI8WV1XJJvsnEko5oLv9nThgRBCCCGEJC5hAbamrEDWNpTI+uVl0lhTKGWFuTJhTGTYfrghl2a8vXFJ4gNHjHGk7gnf8Ng+FzR9BvUcwk4amRkZUlWaJ031RVN5V7GGwEYm1xBLAwVXQgghjoIdU+yerltRqhM9HsOQhNcrDAMYCOHQ0lQGRjXyH2IXGkZ2uTG8m+phiJeqVwSqgdJzixBCCCEkeYBdDG//mvICWbe8RDYYe3lFTZHafQFbQIOX4tg4C3ClIlgfqJCqhaxGZWzCyl0OLV5vk9YNycuLC7Jluek7a5YVy6aVZVrkqqqEa4hEgjlcSVxhe7kLtpcFJizmcF1cXwiNjqvxgBt2YJHvdQqdhqz8fWnp5vtGuKiGjNr3zfefLLuy+H7xXRgbWhDJU1KYI0UFORpOi8/qFLx23QXbyyJVxlpA2zY5YFu5C7bXNLRtExPkpkbOV1/I8noNIv+refswEbOz0lWsTSVPxWTJ4QrJDSnXJkxfHJ+E4wlO4n/8Y7Wn3jd3UfgRQipE+bwcpNdJzjRiqTIenyG4vv766/LDH/5QDhw4IGNjY7Jp0yb5m7/5G7nyyivtV8zPjh075KGHHpLt27fL8PCwlJSUyCWXXCL333+/rF692n5V5NAoTR7YXu6C7WVBo9T5vgCDEikHUC0TfxOPER5jGSPWeXjCYldXPWLtnzsFcxKirJXHL00yzDFehA0nvE/MomFx2MotaL1myrAyr4ExBXsq0/SlEk+OFHtgRDkrss6E1667YHtZUHC1YH9wD2wrd8H2moa2rTuADQknhSAiogJjmn4qDEzILNjAmcYGDhufSYabBNfw2sAK+be8Ui1OamHI7KwMycvO0CMKDIfXDWhHPZpXIn85hPVUENVTZTw+RXB97LHH5Otf/7pkZ2fLpZdeaganSXnrrbdUeP3Wt74ld955p/3Ks/Pkk0/K1772NdPZJmTjxo1SV1cnhw8flmPHjkleXp4KsRdffLH96sigUZo8sL3cBdvLgkbp0vcFvC8IsRAwrfvWbXTcGKHqOTshY7YwqybKLB9DDRpjj2aY9rRu8xdbCf9dGE4wojBjnkyzDCcYRQW2Z+o4XgcDy34tplar8Eu6HuGRAGEYxa5iJbLOhNeuu2B7WVBwtWB/cA9sK3fB9pqGtq07wWeB7Yt8/6iREBhB8S1ETk1/Rpi26oyQBEJsIgmuKqia739qHWLb+7rAsMHaAA4ViFzDfTiEoC2w7kglz+RISJXxeEpw7e7uluuvv15ycnLkl7/8paxdu1ZfsGvXLrnvvvtUdH322Welurpaz89Gf3+/3HDDDRIMBuV73/ue3gf4Ez/+8Y/l3//931WAfeaZZyQrK0ufiwQapckD28tdsL0saJS6oy+oZ6wxQGGEnpzlc+AUqnfi+dGxcT2qgaovNf/YhhD+Df80DKSwaAqxVHeeMzPMHJYeF+F0ofDadRdsLwsKrhbsD+6BbeUu2F7T0LZNLmADj9qRY+E0XqcLsacw8/Rp5iy0G8v70uonerMf46Vh4VAf2/djxUIEV1veMkc9KFP+pqecs/5BlB1ei59DV8Ex/LPWASetzw/v1OzMdF0bZNlrgrCommnOJ/LaINFIlfF4SnCFGPqjH/1IvvzlL8uXvvQlfTLMD37wA/mP//gP+fu//3v5yle+Yp89k0ceeUS+8Y1vyO233y7f+c537LPT/MVf/IXs3btXfvazn8nWrVvts/NDozR5YHu5C7aXBY3S5O0LlpF1pqEFD1Y3ewbw2nUXbC8LCq4W7A/ugW3lLthe09C2TQ0gxOLz4yvAUe1d/DfHVwLbGK+FJ62V3mtSj+YwZTfj98G5AUfVGPELIcCa/8741eE/ZouR+nLc0Z+ZKVDi7PRj3CsqzpOhoYB1QjFnw39Af9H07wjfxSM9hv/ejPvAet56DDM/PS1dMjKs3KkI9YezBar9a7oy+1z4PnGOVBmPpwTXsBj6xBNPyPr16/XJMEgJcMstt8i5554rv/nNb+yzZwLP2P/5n/+Rz3zmM/r7Tucf/uEf5E9/+pM88MAD8rGPfcw+Oz80SpMHtpe7YHtZ0ChlX3AbbC93wfayoOBqwf7gHthW7oLtNQ1tW+IEkJKgJkGIDYfbhwXZmYT1TutgeYvqPXOESGs/oYdpbTRNr9ne3jOv2amf0wf6vzk39YPEBaTKeKwyPS4KiKrp6emyatUqfWImjY2N+hxeY+uzs3L33XfL448/PqvYinywH3zwgd6vqanRIyGEEEIIIYQQQghxFxA5Id5rnYKp/KVZ4sk79VZgzuGG55DfFK/DbWbKLk3bZW6oym/d0qdqIJx+C9dh0Jt5DxRbSaKiguvQ0JCMjo5KSUmJFsw6nczMTCktLdXcrH7/wpIWoyBXS0uLVFVVyfnnn2+fJYQQQgghhBBCCCGEkORBBVcIqSAvL0+Ps5Gbm6vHhQiue/bskW9/+9t6/6tf/aoKuIQQQgghhBBCCCGEEJJsaA7Xrq4uueqqq6S+vl5eeOEF+6lTufbaa6W9vV22bdsm1dXV9tn52bVrl/z1X/+1DA4Oyl133SXf/OY37WcIIYQQQgghhBBCCCEkuVDB1ev1ykUXXSQVFRXy2muv2U+dymWXXSZ9fX3yzjvvSFFRkX12bl5++WUtlBUIBOSOO+5QL1fkgo0WFhZIHthe7oLtZcHCAuwLboPt5S7YXhapMtYCjrfJAdvKXbC9pqFtS9wAr9nkJVXaVtVPj8cj+fn5MjAwIOPj4/rETHAOz+Xk5EQstj7yyCPyxS9+UcXW++67T/71X/91QWIrIYQQQgghhBBCCCGEuAVVQFHVrampSSYmJuTYsWP6xEyOHj0qk5OTsnbtWvvM3Dz44IPyjW98Q06ePClf//rX5Wtf+xorxxFCCCGEEEIIIYQQQpKeKZfTK6+8Uo/PPfecHmcSPnf11VfrcS5+9rOfyfe+9z3JysqSBx54QD772c/azxBCCCGEEEIIIYQQQkhyMyW4IscqUgY89NBDsmfPHvusyO7du+Xhhx+W3Nxcufvuu+2zogW0mpubpb+/3z4jcuDAAfnOd76j93G8+eab9T4hhBBCCCGEEEIIIYSkAlo0y74vv/jFL+Rb3/qWeqdeeumlmhLgrbfe0hyuEFBvu+02+5Ui9957r7z99tvypS99Sb785S/ruX/8x3+UP/7xj5rndS5v2LvuukuLdEUKCwskD2wvd8H2smBhAfYFt8H2chdsLwsWzbJgf3APbCt3wfaahrYtcQO8ZpOXVGnbU6pY3XPPPfLDH/5QNm/eLO+99556um7ZskV++tOfniK2ng0IsGB4eFieeuqps95aWlr0dYQQQgghhBBCCCGEEJJMnOLhmqjQCyB5YHu5C7aXBb0A2BfcBtvLXbC9LOjhasH+4B7YVu6C7TUNbVviBnjNJi+p0raneLgSQgghhBBCCCGEEEIIWTgUXAkhhBBCCCGEEEIIIcQhKLgSQgghhBBCCCGEEEKIQ1BwJYQQQgghhBBCCCGEEIeg4EoIIYQQQgghhBBCCCEOQcGVEEIIIYQQQgghhBBCHIKCKyGEEEIIIYQQQgghhDgEBVdCCCGEEEIIIYQQQghxiLSTBvt+wjIw4JfJydnfZnm5R/r6fPYjkuiwvdwF28siPT1NSksL7EfJC8fa5IHt5S7YXhapMtYCjrfJAdvKXbC9pqFtS9wAr9nkJVXa1hWCKyGEEEIIIYQQQgghhLgBphQghBBCCCGEEEIIIYQQRxD5/wFzDftlyvqQzwAAAABJRU5ErkJggg==;" parent="1" vertex="1">
          <mxGeometry x="150" y="120" width="520" height="185" as="geometry" />
        </mxCell>
        <mxCell id="xlCc9dDXaL0q_Gi0ADgm-2" value="" style="rounded=0;whiteSpace=wrap;html=1;strokeColor=none;" parent="1" vertex="1">
          <mxGeometry x="150" y="120" width="14" height="180" as="geometry" />
        </mxCell>
        <mxCell id="xlCc9dDXaL0q_Gi0ADgm-3" value="&lt;font style=&quot;font-size: 19px;&quot;&gt;0.3&lt;/font&gt;" style="text;html=1;align=center;verticalAlign=middle;resizable=0;points=[];autosize=1;strokeColor=none;fillColor=none;" parent="1" vertex="1">
          <mxGeometry x="124" y="252" width="50" height="40" as="geometry" />
        </mxCell>
        <mxCell id="xlCc9dDXaL0q_Gi0ADgm-4" value="&lt;font style=&quot;font-size: 19px;&quot;&gt;0.6&lt;/font&gt;" style="text;html=1;align=center;verticalAlign=middle;resizable=0;points=[];autosize=1;strokeColor=none;fillColor=none;" parent="1" vertex="1">
          <mxGeometry x="124" y="178" width="50" height="40" as="geometry" />
        </mxCell>
        <mxCell id="xlCc9dDXaL0q_Gi0ADgm-5" value="&lt;font style=&quot;font-size: 19px;&quot;&gt;0.9&lt;/font&gt;" style="text;html=1;align=center;verticalAlign=middle;resizable=0;points=[];autosize=1;strokeColor=none;fillColor=none;" parent="1" vertex="1">
          <mxGeometry x="124" y="102" width="50" height="40" as="geometry" />
        </mxCell>
        <mxCell id="xlCc9dDXaL0q_Gi0ADgm-6" value="&lt;font style=&quot;font-size: 20px;&quot;&gt;Cell 1&lt;/font&gt;" style="text;html=1;align=center;verticalAlign=middle;resizable=0;points=[];autosize=1;strokeColor=none;fillColor=none;" parent="1" vertex="1">
          <mxGeometry x="180" y="85" width="70" height="40" as="geometry" />
        </mxCell>
        <mxCell id="xlCc9dDXaL0q_Gi0ADgm-7" value="&lt;font style=&quot;font-size: 20px;&quot;&gt;Cell 2&lt;/font&gt;" style="text;html=1;align=center;verticalAlign=middle;resizable=0;points=[];autosize=1;strokeColor=none;fillColor=none;" parent="1" vertex="1">
          <mxGeometry x="310" y="85" width="70" height="40" as="geometry" />
        </mxCell>
        <mxCell id="xlCc9dDXaL0q_Gi0ADgm-8" value="&lt;font style=&quot;font-size: 20px;&quot;&gt;Cell 3&lt;/font&gt;" style="text;html=1;align=center;verticalAlign=middle;resizable=0;points=[];autosize=1;strokeColor=none;fillColor=none;" parent="1" vertex="1">
          <mxGeometry x="449" y="85" width="70" height="40" as="geometry" />
        </mxCell>
        <mxCell id="xlCc9dDXaL0q_Gi0ADgm-9" value="&lt;font style=&quot;font-size: 20px;&quot;&gt;Cell 4&lt;br&gt;&lt;/font&gt;" style="text;html=1;align=center;verticalAlign=middle;resizable=0;points=[];autosize=1;strokeColor=none;fillColor=none;" parent="1" vertex="1">
          <mxGeometry x="579" y="85" width="70" height="40" as="geometry" />
        </mxCell>
        <mxCell id="Ii3CtBeGKATCsXoLljwp-1" value="&lt;font style=&quot;font-size: 20px;&quot;&gt;1&lt;/font&gt;" style="text;html=1;align=center;verticalAlign=middle;resizable=0;points=[];autosize=1;strokeColor=none;fillColor=none;" vertex="1" parent="1">
          <mxGeometry x="152" y="295" width="30" height="40" as="geometry" />
        </mxCell>
        <mxCell id="Ii3CtBeGKATCsXoLljwp-2" value="&lt;font style=&quot;font-size: 20px;&quot;&gt;30&lt;/font&gt;" style="text;html=1;align=center;verticalAlign=middle;resizable=0;points=[];autosize=1;strokeColor=none;fillColor=none;" vertex="1" parent="1">
          <mxGeometry x="242" y="296" width="50" height="40" as="geometry" />
        </mxCell>
        <mxCell id="Ii3CtBeGKATCsXoLljwp-3" value="&lt;font style=&quot;font-size: 20px;&quot;&gt;epoch&lt;/font&gt;" style="text;html=1;align=center;verticalAlign=middle;resizable=0;points=[];autosize=1;strokeColor=none;fillColor=none;" vertex="1" parent="1">
          <mxGeometry x="174" y="296" width="80" height="40" as="geometry" />
        </mxCell>
        <mxCell id="Ii3CtBeGKATCsXoLljwp-4" value="&lt;font style=&quot;font-size: 20px;&quot;&gt;1&lt;/font&gt;" style="text;html=1;align=center;verticalAlign=middle;resizable=0;points=[];autosize=1;strokeColor=none;fillColor=none;" vertex="1" parent="1">
          <mxGeometry x="284" y="295" width="30" height="40" as="geometry" />
        </mxCell>
        <mxCell id="Ii3CtBeGKATCsXoLljwp-5" value="&lt;font style=&quot;font-size: 20px;&quot;&gt;30&lt;/font&gt;" style="text;html=1;align=center;verticalAlign=middle;resizable=0;points=[];autosize=1;strokeColor=none;fillColor=none;" vertex="1" parent="1">
          <mxGeometry x="374" y="296" width="50" height="40" as="geometry" />
        </mxCell>
        <mxCell id="Ii3CtBeGKATCsXoLljwp-7" value="&lt;font style=&quot;font-size: 20px;&quot;&gt;1&lt;/font&gt;" style="text;html=1;align=center;verticalAlign=middle;resizable=0;points=[];autosize=1;strokeColor=none;fillColor=none;" vertex="1" parent="1">
          <mxGeometry x="417" y="294" width="30" height="40" as="geometry" />
        </mxCell>
        <mxCell id="Ii3CtBeGKATCsXoLljwp-8" value="&lt;font style=&quot;font-size: 20px;&quot;&gt;30&lt;/font&gt;" style="text;html=1;align=center;verticalAlign=middle;resizable=0;points=[];autosize=1;strokeColor=none;fillColor=none;" vertex="1" parent="1">
          <mxGeometry x="507" y="295" width="50" height="40" as="geometry" />
        </mxCell>
        <mxCell id="Ii3CtBeGKATCsXoLljwp-10" value="&lt;font style=&quot;font-size: 20px;&quot;&gt;1&lt;/font&gt;" style="text;html=1;align=center;verticalAlign=middle;resizable=0;points=[];autosize=1;strokeColor=none;fillColor=none;" vertex="1" parent="1">
          <mxGeometry x="547" y="294" width="30" height="40" as="geometry" />
        </mxCell>
        <mxCell id="Ii3CtBeGKATCsXoLljwp-11" value="&lt;font style=&quot;font-size: 20px;&quot;&gt;30&lt;/font&gt;" style="text;html=1;align=center;verticalAlign=middle;resizable=0;points=[];autosize=1;strokeColor=none;fillColor=none;" vertex="1" parent="1">
          <mxGeometry x="637" y="295" width="50" height="40" as="geometry" />
        </mxCell>
      </root>
    </mxGraphModel>
  </diagram>
</mxfile>
